<svg width="165" height="74" viewBox="0 0 165 74" fill="none" xmlns="http://www.w3.org/2000/svg">
<path d="M13.632 9.96C16.4267 9.96 18.4213 10.664 19.616 12.072C20.4907 13.1387 20.928 14.472 20.928 16.072C20.928 16.648 20.8747 17.256 20.768 17.896L19.52 25.032C19.0933 27.4427 18.048 29.3733 16.384 30.824C14.72 32.2747 12.5653 33 9.92 33H0.608L4.672 9.96H13.632ZM11.616 14.952H9.536L7.264 28.008H10.304C11.3067 28.008 12.0853 27.7413 12.64 27.208C13.216 26.6533 13.6107 25.7573 13.824 24.52L14.752 19.272C14.8373 18.8027 14.88 18.376 14.88 17.992C14.88 15.9653 13.792 14.952 11.616 14.952ZM31.6783 17.16C33.9823 17.16 35.7209 17.6613 36.8943 18.664C37.8116 19.4533 38.2703 20.552 38.2703 21.96C38.2703 22.4293 38.2169 22.9413 38.1103 23.496L37.4383 27.24C37.0329 29.5013 36.0836 31.1013 34.5903 32.04C33.1183 32.9787 31.1449 33.448 28.6703 33.448C26.1956 33.448 24.3823 32.9787 23.2303 32.04C22.3769 31.336 21.9503 30.28 21.9503 28.872C21.9503 28.3813 22.0036 27.8373 22.1103 27.24L22.7823 23.496C23.5289 19.272 26.4943 17.16 31.6783 17.16ZM32.5423 24.136C32.5849 23.9227 32.6063 23.656 32.6063 23.336C32.6063 22.9947 32.4676 22.6213 32.1903 22.216C31.9129 21.8107 31.4223 21.608 30.7183 21.608C30.0356 21.608 29.4596 21.8427 28.9903 22.312C28.5209 22.76 28.2223 23.368 28.0943 24.136L27.6783 26.536C27.6356 26.7493 27.6143 27.0267 27.6143 27.368C27.6143 27.688 27.7529 28.04 28.0303 28.424C28.3076 28.808 28.7876 29 29.4703 29C30.1743 29 30.7609 28.7653 31.2303 28.296C31.6996 27.8053 31.9983 27.2187 32.1263 26.536L32.5423 24.136ZM50.4768 23.176C50.4768 22.2587 50.0288 21.8 49.1328 21.8C48.2581 21.8 47.5328 22.1307 46.9568 22.792L45.1648 33H39.7248L42.4448 17.608H47.5008L47.1488 19.496C48.4074 17.9387 49.9968 17.16 51.9168 17.16C53.8368 17.16 55.0848 17.6293 55.6608 18.568C56.0234 19.1653 56.2048 19.848 56.2048 20.616C56.2048 21.384 56.1514 22.0987 56.0448 22.76L55.1808 27.688C55.1594 27.816 55.1488 27.9333 55.1488 28.04C55.1488 28.616 55.4688 28.904 56.1088 28.904C56.5994 28.904 57.0368 28.7973 57.4208 28.584L57.2608 32.2C56.2581 33.032 55.1168 33.448 53.8368 33.448C50.9354 33.448 49.4848 32.232 49.4848 29.8C49.4848 29.3733 49.5274 28.9147 49.6128 28.424L50.3808 24.168C50.4448 23.784 50.4768 23.4533 50.4768 23.176ZM88.7133 9.96L84.6813 33H78.8893L74.8573 20.392L72.6813 33H66.8893L70.9533 9.96H76.9053L80.8733 21.736L82.9533 9.96H88.7133ZM104.306 28.072C104.306 28.6267 104.583 28.904 105.138 28.904C105.714 28.904 106.194 28.7973 106.578 28.584L106.418 32.2C105.394 33.032 104.242 33.448 102.962 33.448C100.615 33.448 99.3138 32.5947 99.0578 30.888C97.9911 32.5947 96.4231 33.448 94.3538 33.448C90.8551 33.448 89.1058 31.944 89.1058 28.936C89.1058 28.424 89.1591 27.8587 89.2658 27.24L89.9378 23.496C90.2791 21.576 91.0578 20.0507 92.2738 18.92C93.5111 17.768 95.1111 17.192 97.0738 17.192C99.0578 17.192 100.402 17.6507 101.106 18.568L101.266 17.608H106.13L104.338 27.688C104.316 27.816 104.306 27.944 104.306 28.072ZM94.8338 26.536C94.7911 26.728 94.7698 26.9947 94.7698 27.336C94.7698 27.6773 94.9298 28.0187 95.2498 28.36C95.5698 28.68 96.1031 28.84 96.8498 28.84C97.6178 28.84 98.2791 28.5413 98.8338 27.944L99.7938 22.568C99.5591 22.0347 99.0044 21.768 98.1298 21.768C96.4871 21.768 95.5271 22.5573 95.2498 24.136L94.8338 26.536ZM101.778 14.824H97.0417L102.29 7.176H108.05L101.778 14.824ZM119.652 17.192C121.828 17.192 123.332 17.768 124.164 18.92C124.761 19.7093 125.06 20.712 125.06 21.928C125.06 22.4187 125.006 22.9413 124.9 23.496L124.26 27.24C123.897 29.2667 123.118 30.8133 121.924 31.88C120.729 32.9253 119.236 33.448 117.444 33.448C115.652 33.448 114.404 32.968 113.7 32.008L111.972 41.896H106.532L110.82 17.608H115.748L115.588 18.472C116.59 17.6187 117.945 17.192 119.652 17.192ZM116.324 28.84C116.921 28.84 117.476 28.648 117.988 28.264C118.5 27.88 118.82 27.304 118.948 26.536L119.364 24.136C119.406 23.9227 119.428 23.656 119.428 23.336C119.428 23.016 119.289 22.6747 119.012 22.312C118.734 21.9493 118.254 21.768 117.572 21.768C116.462 21.768 115.737 22.0347 115.396 22.568L114.436 27.944C114.734 28.5413 115.364 28.84 116.324 28.84ZM136.553 17.16C138.857 17.16 140.596 17.6613 141.769 18.664C142.687 19.4533 143.145 20.552 143.145 21.96C143.145 22.4293 143.092 22.9413 142.985 23.496L142.313 27.24C141.908 29.5013 140.959 31.1013 139.465 32.04C137.993 32.9787 136.02 33.448 133.545 33.448C131.071 33.448 129.257 32.9787 128.105 32.04C127.252 31.336 126.825 30.28 126.825 28.872C126.825 28.3813 126.879 27.8373 126.985 27.24L127.657 23.496C128.404 19.272 131.369 17.16 136.553 17.16ZM137.417 24.136C137.46 23.9227 137.481 23.656 137.481 23.336C137.481 22.9947 137.343 22.6213 137.065 22.216C136.788 21.8107 136.297 21.608 135.593 21.608C134.911 21.608 134.335 21.8427 133.865 22.312C133.396 22.76 133.097 23.368 132.969 24.136L132.553 26.536C132.511 26.7493 132.489 27.0267 132.489 27.368C132.489 27.688 132.628 28.04 132.905 28.424C133.183 28.808 133.663 29 134.345 29C135.049 29 135.636 28.7653 136.105 28.296C136.575 27.8053 136.873 27.2187 137.001 26.536L137.417 24.136ZM151 28.072C151 28.6267 151.277 28.904 151.832 28.904C152.408 28.904 152.888 28.7973 153.272 28.584L153.112 32.2C152.088 33.032 150.936 33.448 149.656 33.448C147.714 33.448 146.456 33 145.88 32.104C145.517 31.528 145.336 30.8987 145.336 30.216C145.336 29.5333 145.378 28.936 145.464 28.424L148.952 8.712H154.392L151.032 27.688C151.01 27.816 151 27.944 151 28.072ZM162.019 28.904C162.509 28.904 162.947 28.7973 163.331 28.584L163.171 32.2C162.168 33.032 161.027 33.448 159.747 33.448C157.805 33.448 156.547 33 155.971 32.104C155.587 31.5067 155.395 30.8773 155.395 30.216C155.395 29.5333 155.437 28.936 155.523 28.424L157.443 17.608H162.883L161.091 27.688C161.069 27.816 161.059 27.9333 161.059 28.04C161.059 28.616 161.379 28.904 162.019 28.904ZM158.083 12.392C158.083 11.0267 158.381 10.0347 158.979 9.416C159.597 8.776 160.547 8.456 161.827 8.456C163.619 8.456 164.515 9.24533 164.515 10.824C164.515 12.168 164.205 13.1493 163.587 13.768C162.989 14.3867 162.04 14.696 160.739 14.696C158.968 14.696 158.083 13.928 158.083 12.392Z" fill="white"/>
<path d="M25.3125 48.4688C25.5469 48.4167 25.7552 48.4948 25.9375 48.7031C26.1458 48.8854 26.237 49.1068 26.2109 49.3672C26.2109 49.4193 26.1849 49.4844 26.1328 49.5625C26.0807 49.6406 26.0417 49.7057 26.0156 49.7578C25.9635 50.0703 25.8594 50.3438 25.7031 50.5781C25.5729 50.7865 25.4297 50.9557 25.2734 51.0859C24.987 51.138 24.7656 51.099 24.6094 50.9688C24.4792 50.8125 24.388 50.6302 24.3359 50.4219C24.388 50.3438 24.4141 50.2526 24.4141 50.1484C24.4141 50.0443 24.4271 49.9531 24.4531 49.875C24.4792 49.7708 24.5182 49.6797 24.5703 49.6016C24.6224 49.5234 24.6615 49.4323 24.6875 49.3281C24.7135 49.1979 24.7266 49.0938 24.7266 49.0156C24.7266 48.9115 24.7656 48.8073 24.8438 48.7031C24.9219 48.6771 24.987 48.651 25.0391 48.625C25.1172 48.5729 25.2083 48.5208 25.3125 48.4688ZM15.8203 51.0469C15.7682 50.9948 15.7031 50.9427 15.625 50.8906C15.5729 50.8385 15.5208 50.7865 15.4688 50.7344C15.3646 50.5 15.3255 50.2396 15.3516 49.9531C15.3776 49.6667 15.4948 49.4974 15.7031 49.4453C15.9115 49.2891 16.0547 49.224 16.1328 49.25C16.2891 49.3021 16.4193 49.4193 16.5234 49.6016C16.6536 49.7578 16.7448 49.9531 16.7969 50.1875C16.849 50.3958 16.862 50.6042 16.8359 50.8125C16.8099 51.0208 16.7318 51.1771 16.6016 51.2812C16.4714 51.3854 16.3021 51.4115 16.0938 51.3594C15.9115 51.2812 15.7943 51.1771 15.7422 51.0469H15.8203ZM32.5 64.25C32.4219 64.3802 32.3177 64.4714 32.1875 64.5234C32.0833 64.5755 31.9792 64.6536 31.875 64.7578C31.7969 64.8099 31.7318 64.875 31.6797 64.9531C31.6276 65.0312 31.5495 65.0833 31.4453 65.1094C31.263 65.1615 31.0677 65.1615 30.8594 65.1094C30.651 65.0573 30.4818 64.9922 30.3516 64.9141C30.2474 64.4974 30.2734 64.1719 30.4297 63.9375C30.5859 63.6771 30.8073 63.5339 31.0938 63.5078C31.276 63.612 31.4714 63.612 31.6797 63.5078C31.9141 63.4036 32.1094 63.4297 32.2656 63.5859C32.2917 63.7422 32.3307 63.8594 32.3828 63.9375C32.4609 64.0156 32.5 64.1198 32.5 64.25ZM28.5156 65.8125C28.4896 65.9688 28.4766 66.125 28.4766 66.2812C28.4766 66.4375 28.3984 66.5417 28.2422 66.5938C27.9036 66.75 27.6562 66.724 27.5 66.5156C27.3438 66.3073 27.2786 66.0729 27.3047 65.8125C27.4089 65.7344 27.5 65.6432 27.5781 65.5391C27.6823 65.4349 27.7995 65.3568 27.9297 65.3047C28.1901 65.487 28.3854 65.6562 28.5156 65.8125ZM24.0234 73.1562C24.0234 72.7917 24.1016 72.4922 24.2578 72.2578C24.4141 72.0234 24.5703 71.8281 24.7266 71.6719C25.013 71.5677 25.2344 71.4766 25.3906 71.3984C25.651 71.5026 25.7943 71.6458 25.8203 71.8281C25.8724 72.0104 25.8594 72.2057 25.7812 72.4141C25.7031 72.5964 25.5729 72.7656 25.3906 72.9219C25.2344 73.0781 25.0781 73.1953 24.9219 73.2734C24.5833 73.5078 24.375 73.5599 24.2969 73.4297C24.2188 73.2995 24.1276 73.2083 24.0234 73.1562ZM22.6172 45.6172C22.6953 45.5651 22.7734 45.5 22.8516 45.4219C22.9297 45.3177 23.0078 45.2656 23.0859 45.2656C23.138 45.1875 23.2031 45.1354 23.2812 45.1094C23.3854 45.0573 23.5156 45.0052 23.6719 44.9531C23.8021 44.901 23.9323 44.849 24.0625 44.7969C24.2188 44.7448 24.362 44.7708 24.4922 44.875C24.6224 44.849 24.7526 44.8099 24.8828 44.7578C25.0391 44.7057 25.1823 44.7057 25.3125 44.7578C25.4948 44.7318 25.6771 44.7057 25.8594 44.6797C26.0417 44.6276 26.237 44.6276 26.4453 44.6797C26.8359 44.5495 27.2526 44.4714 27.6953 44.4453C28.138 44.4193 28.5677 44.3932 28.9844 44.3672C29.3229 44.3932 29.5573 44.3802 29.6875 44.3281C29.8177 44.276 29.9479 44.25 30.0781 44.25C30.3646 44.3021 30.625 44.4062 30.8594 44.5625C31.1198 44.7188 31.4062 44.8229 31.7188 44.875C31.901 45.0052 32.0443 45.1615 32.1484 45.3438C32.2526 45.5 32.3828 45.6432 32.5391 45.7734C32.6953 45.9297 32.8516 46.0208 33.0078 46.0469C33.1901 46.0469 33.3333 46.099 33.4375 46.2031C33.5938 46.2031 33.7109 46.2292 33.7891 46.2812C33.8672 46.3333 33.9583 46.3854 34.0625 46.4375C34.1927 46.75 34.375 46.9974 34.6094 47.1797C34.8438 47.362 35 47.6354 35.0781 48C35.3125 48.3906 35.4818 48.651 35.5859 48.7812C35.7161 48.9115 35.8073 49.0677 35.8594 49.25C36.0156 49.4323 36.1198 49.5625 36.1719 49.6406C36.25 49.6927 36.2891 49.7839 36.2891 49.9141C36.4714 50.1224 36.5755 50.3958 36.6016 50.7344C36.6536 51.0469 36.7578 51.3203 36.9141 51.5547C36.888 51.6589 36.888 51.776 36.9141 51.9062C36.9661 52.0104 36.9661 52.0885 36.9141 52.1406C37.0443 52.2708 37.0964 52.4401 37.0703 52.6484C37.0443 52.8307 37.0833 53 37.1875 53.1562C37.1354 53.6771 37.1224 54.1849 37.1484 54.6797C37.1745 55.1484 37.1484 55.6693 37.0703 56.2422C37.0964 56.3464 37.0703 56.4635 36.9922 56.5938C36.9401 56.724 36.9401 56.8542 36.9922 56.9844C36.9401 57.0365 36.901 57.1146 36.875 57.2188C36.875 57.2969 36.8359 57.349 36.7578 57.375C36.6276 57.6615 36.4714 57.9349 36.2891 58.1953C36.1068 58.4297 35.9375 58.6901 35.7812 58.9766C35.625 59.1068 35.5078 59.224 35.4297 59.3281C35.3776 59.4062 35.3125 59.4583 35.2344 59.4844C35.1823 59.6927 35.0391 59.8359 34.8047 59.9141C34.5703 59.9922 34.401 60.1224 34.2969 60.3047C34.0885 60.4089 33.9714 60.513 33.9453 60.6172C33.9193 60.6953 33.8802 60.7604 33.8281 60.8125C33.5938 60.9167 33.4115 61.0599 33.2812 61.2422C33.0469 61.4245 32.7865 61.5807 32.5 61.7109C32.2396 61.8151 31.9922 61.9323 31.7578 62.0625C31.5755 62.1406 31.4323 62.2318 31.3281 62.3359C31.25 62.4141 31.1328 62.4531 30.9766 62.4531C30.6641 62.6615 30.4036 62.8177 30.1953 62.9219C29.987 63 29.8047 63.026 29.6484 63C29.6224 63.0521 29.5443 63.0911 29.4141 63.1172C29.3099 63.1432 29.2318 63.1302 29.1797 63.0781C29.1016 63.1562 28.9974 63.2083 28.8672 63.2344C28.737 63.2344 28.6198 63.2474 28.5156 63.2734C28.3594 63.3516 28.1901 63.4297 28.0078 63.5078C27.8255 63.5599 27.6302 63.612 27.4219 63.6641C27.3438 63.6901 27.2526 63.7031 27.1484 63.7031C27.0703 63.6771 26.9922 63.6771 26.9141 63.7031C26.6536 63.8594 26.4714 63.9375 26.3672 63.9375C26.2891 63.9115 26.1849 63.8984 26.0547 63.8984C25.8984 63.8203 25.7292 63.7943 25.5469 63.8203C25.3646 63.8203 25.1693 63.8333 24.9609 63.8594C24.7786 63.8594 24.5964 63.8594 24.4141 63.8594C24.2318 63.8594 24.0495 63.8203 23.8672 63.7422C23.6068 63.8724 23.3333 63.9115 23.0469 63.8594C22.7865 63.7812 22.513 63.7552 22.2266 63.7812C22.0703 64.1458 22.0182 64.4062 22.0703 64.5625C22.1224 64.6927 22.1484 64.8359 22.1484 64.9922C22.1224 65.4349 22.1224 65.7344 22.1484 65.8906C22.2005 66.0469 22.2005 66.1901 22.1484 66.3203C22.1745 66.6589 22.2005 66.9583 22.2266 67.2188C22.2526 67.4792 22.2526 67.7526 22.2266 68.0391C22.3047 68.7161 22.4089 69.224 22.5391 69.5625C22.6693 69.901 22.8776 70.1745 23.1641 70.3828C23.1901 70.6172 23.2292 70.8255 23.2812 71.0078C23.3594 71.1641 23.3724 71.3464 23.3203 71.5547C23.3203 71.6589 23.2943 71.75 23.2422 71.8281C23.1901 71.9062 23.151 71.9844 23.125 72.0625C23.0729 72.1927 23.0339 72.3359 23.0078 72.4922C22.9818 72.6224 22.9036 72.7135 22.7734 72.7656C22.7214 72.8177 22.6562 72.8438 22.5781 72.8438C22.5 72.8177 22.4219 72.8177 22.3438 72.8438C22.0573 72.9219 21.875 72.974 21.7969 73C21.7188 73.0521 21.6406 73.1042 21.5625 73.1562C21.4583 73.1562 21.3672 73.1432 21.2891 73.1172C21.237 73.1172 21.1589 73.1432 21.0547 73.1953C20.7161 73.3516 20.4688 73.4036 20.3125 73.3516C20.1562 73.3255 20 73.2865 19.8438 73.2344C19.7135 73.3125 19.5964 73.3125 19.4922 73.2344C19.388 73.1562 19.2839 73.0911 19.1797 73.0391C18.8932 73.0391 18.6979 73.0391 18.5938 73.0391C18.5156 73.0391 18.4505 73.013 18.3984 72.9609C18.1641 73.013 17.9948 72.9479 17.8906 72.7656C17.7865 72.5833 17.6562 72.4531 17.5 72.375C17.4219 71.8021 17.3438 71.3724 17.2656 71.0859C17.1875 70.7995 17.1094 70.4609 17.0312 70.0703C17.0312 69.862 17.0312 69.6536 17.0312 69.4453C17.0312 69.2109 17.0703 69.0156 17.1484 68.8594C17.1745 68.599 17.2135 68.4427 17.2656 68.3906C17.1875 68.2604 17.1875 68.1302 17.2656 68C17.3698 67.8698 17.3958 67.7526 17.3438 67.6484C17.4219 67.2578 17.487 66.9583 17.5391 66.75C17.5911 66.5156 17.6172 66.2812 17.6172 66.0469C17.7474 65.9167 17.8125 65.7474 17.8125 65.5391C17.8385 65.3307 17.9297 65.1745 18.0859 65.0703C18.0339 64.9401 18.0469 64.8099 18.125 64.6797C18.2292 64.5495 18.2943 64.4062 18.3203 64.25C18.4245 63.7552 18.4375 63.3646 18.3594 63.0781C18.3073 62.7917 18.2552 62.4401 18.2031 62.0234C18.2552 61.6849 18.2552 61.4375 18.2031 61.2812C18.151 61.099 18.151 60.9167 18.2031 60.7344C18.151 60.6302 18.138 60.513 18.1641 60.3828C18.1901 60.2266 18.1771 60.1094 18.125 60.0312C18.2031 59.7969 18.2422 59.6016 18.2422 59.4453C18.2682 59.2891 18.3333 59.1458 18.4375 59.0156C18.4635 58.6771 18.5156 58.3906 18.5938 58.1562C18.6719 57.9219 18.737 57.6875 18.7891 57.4531C18.7891 57.2448 18.776 57.1016 18.75 57.0234C18.75 56.9193 18.763 56.8021 18.7891 56.6719C18.8411 56.5677 18.8411 56.4896 18.7891 56.4375C18.763 56.3594 18.763 56.2943 18.7891 56.2422C18.7891 56.0339 18.8021 55.8255 18.8281 55.6172C18.8542 55.4089 18.8932 55.2005 18.9453 54.9922C18.8932 54.7057 18.8672 54.5365 18.8672 54.4844C18.8932 54.4323 18.8802 54.3932 18.8281 54.3672C18.9062 53.8984 18.9193 53.4557 18.8672 53.0391C18.8411 52.5964 18.8802 52.1276 18.9844 51.6328C18.8802 51.4505 18.8672 51.2422 18.9453 51.0078C19.0234 50.7734 19.0234 50.5911 18.9453 50.4609C18.9714 50.1224 18.9714 49.862 18.9453 49.6797C18.9193 49.4974 18.8672 49.3542 18.7891 49.25C18.6589 49.0677 18.5807 48.9375 18.5547 48.8594C18.4245 48.7812 18.3073 48.6901 18.2031 48.5859C18.125 48.4818 18.0469 48.3776 17.9688 48.2734C17.7865 48.2214 17.6302 48.1432 17.5 48.0391C17.3698 47.9349 17.2396 47.8438 17.1094 47.7656C16.9792 47.5312 16.875 47.2969 16.7969 47.0625C16.7448 46.8281 16.6927 46.5547 16.6406 46.2422C16.7188 46.1641 16.7318 46.0729 16.6797 45.9688C16.6276 45.8385 16.6276 45.7344 16.6797 45.6562C16.6797 45.4219 16.6797 45.2005 16.6797 44.9922C16.6797 44.7578 16.7188 44.5495 16.7969 44.3672C17.0312 43.7943 17.4349 43.4167 18.0078 43.2344C18.2422 43.026 18.5286 42.8958 18.8672 42.8438C19.2057 42.7656 19.5573 42.7135 19.9219 42.6875C20.2083 42.6875 20.4297 42.7005 20.5859 42.7266C20.7422 42.7526 20.9245 42.7917 21.1328 42.8438C21.5495 43.1302 21.9141 43.3776 22.2266 43.5859C22.5391 43.7682 22.7344 44.0547 22.8125 44.4453C22.8646 44.6276 22.8125 44.8229 22.6562 45.0312C22.526 45.2135 22.513 45.4089 22.6172 45.6172ZM27.6953 47.4531L26.3281 47.375C26.0938 47.375 25.8984 47.401 25.7422 47.4531C25.5859 47.4792 25.4167 47.5052 25.2344 47.5312C24.7917 47.5312 24.4922 47.5964 24.3359 47.7266C24.2057 47.8307 24.0755 47.9479 23.9453 48.0781C23.8932 48.3125 23.8281 48.5599 23.75 48.8203C23.6979 49.0547 23.6328 49.276 23.5547 49.4844C23.5807 49.6146 23.5547 49.7188 23.4766 49.7969C23.4245 49.875 23.3984 49.9792 23.3984 50.1094C23.4766 50.1875 23.5026 50.2786 23.4766 50.3828C23.4505 50.487 23.4245 50.6042 23.3984 50.7344C23.3984 50.8385 23.3984 50.9427 23.3984 51.0469C23.4245 51.125 23.4375 51.2031 23.4375 51.2812C23.4375 51.4375 23.4115 51.5938 23.3594 51.75C23.3073 51.8802 23.2682 52.0365 23.2422 52.2188C23.2161 52.401 23.2031 52.5703 23.2031 52.7266C23.2031 52.8828 23.1771 53.0391 23.125 53.1953C23.1771 53.4036 23.1901 53.625 23.1641 53.8594C23.1641 54.0938 23.1641 54.3151 23.1641 54.5234C23.138 54.6016 23.138 54.6797 23.1641 54.7578C23.1901 54.8359 23.1901 54.901 23.1641 54.9531C23.0599 55.3698 22.9688 55.6172 22.8906 55.6953C22.8385 55.7734 22.7995 55.8776 22.7734 56.0078C22.7474 56.138 22.7344 56.2422 22.7344 56.3203C22.7604 56.3984 22.7734 56.4635 22.7734 56.5156C22.5911 56.6719 22.526 56.8932 22.5781 57.1797C22.6302 57.4401 22.6302 57.6875 22.5781 57.9219C22.6562 58.0521 22.6823 58.1823 22.6562 58.3125C22.6562 58.4427 22.6953 58.5729 22.7734 58.7031C22.8776 58.9115 22.9688 59.0417 23.0469 59.0938C23.151 59.1198 23.2812 59.1328 23.4375 59.1328C23.776 59.237 23.9844 59.3802 24.0625 59.5625C24.1667 59.7448 24.3359 59.862 24.5703 59.9141C24.7266 59.8099 24.8828 59.7057 25.0391 59.6016C25.1432 59.5495 25.2474 59.4974 25.3516 59.4453C25.4557 59.3672 25.5469 59.3021 25.625 59.25C25.9115 59.1719 26.0938 59.1198 26.1719 59.0938C26.276 59.0417 26.3672 59.0417 26.4453 59.0938C26.7578 58.9635 26.9531 58.8724 27.0312 58.8203C27.1354 58.7422 27.2526 58.7292 27.3828 58.7812C27.7995 58.625 28.151 58.599 28.4375 58.7031C28.724 58.8073 28.9714 58.8854 29.1797 58.9375C29.2318 58.8854 29.3099 58.8464 29.4141 58.8203C29.5443 58.7682 29.6484 58.7552 29.7266 58.7812C29.9349 58.625 30.1823 58.5208 30.4688 58.4688C30.7552 58.3906 31.0156 58.2865 31.25 58.1562C31.5625 58.1042 31.7578 58.0391 31.8359 57.9609C31.9401 57.8828 32.0573 57.8307 32.1875 57.8047C32.3438 57.7005 32.4479 57.5573 32.5 57.375C32.5781 57.1927 32.6823 57.0365 32.8125 56.9062C32.9948 56.5677 33.0729 56.3464 33.0469 56.2422C33.0208 56.112 33.0208 55.9688 33.0469 55.8125C33.151 55.474 33.1641 55.2135 33.0859 55.0312C33.0339 54.849 33.0208 54.6536 33.0469 54.4453C33.0208 54.1068 32.9948 53.8984 32.9688 53.8203C32.9427 53.7161 32.9036 53.625 32.8516 53.5469C32.7995 53.4688 32.7474 53.3906 32.6953 53.3125C32.6693 53.2344 32.6693 53.1432 32.6953 53.0391C32.487 52.6224 32.3438 52.3099 32.2656 52.1016C32.1875 51.8932 32.0833 51.6979 31.9531 51.5156C31.901 51.3854 31.849 51.2943 31.7969 51.2422C31.7708 51.1641 31.7839 51.099 31.8359 51.0469C31.6536 50.9688 31.5885 50.8255 31.6406 50.6172C31.3542 50.2526 31.1589 49.9271 31.0547 49.6406C30.7422 49.0677 30.4557 48.638 30.1953 48.3516C29.9609 48.0651 29.6354 47.9219 29.2188 47.9219C29.0625 47.8698 28.9323 47.8047 28.8281 47.7266C28.75 47.6224 28.6458 47.5833 28.5156 47.6094C28.3073 47.5312 28.138 47.4792 28.0078 47.4531C27.9036 47.401 27.7995 47.401 27.6953 47.4531ZM45.3516 44.7969C45.0651 44.849 44.8047 44.849 44.5703 44.7969C44.3359 44.7188 44.2057 44.5495 44.1797 44.2891C44.1536 44.1328 44.2057 43.9375 44.3359 43.7031C44.4661 43.4427 44.6094 43.2865 44.7656 43.2344C44.8958 43.2604 45 43.2474 45.0781 43.1953C45.1562 43.1172 45.2604 43.0911 45.3906 43.1172C45.4427 43.1693 45.5078 43.2083 45.5859 43.2344C45.6641 43.2344 45.7292 43.2734 45.7812 43.3516C45.9115 43.5078 45.9505 43.7161 45.8984 43.9766C45.8464 44.237 45.7552 44.4323 45.625 44.5625L45.3516 44.7969ZM39.1797 48.1172C39.1536 48.0651 39.1406 47.987 39.1406 47.8828C39.1667 47.7526 39.1667 47.6224 39.1406 47.4922C39.0885 47.3359 39.0365 47.1536 38.9844 46.9453C38.9844 46.763 39.0234 46.6068 39.1016 46.4766C39.1797 46.3464 39.2318 46.2031 39.2578 46.0469C39.4922 45.8646 39.7005 45.6432 39.8828 45.3828C40.0651 45.1224 40.3125 44.9271 40.625 44.7969C40.8854 44.6667 41.0807 44.5885 41.2109 44.5625C41.3411 44.5104 41.4583 44.5104 41.5625 44.5625C41.6927 44.5104 41.8099 44.4844 41.9141 44.4844C42.0182 44.4844 42.1094 44.4974 42.1875 44.5234C42.3438 44.4193 42.474 44.4323 42.5781 44.5625C42.7083 44.6927 42.8385 44.8099 42.9688 44.9141C43.125 45.0703 43.2812 45.2005 43.4375 45.3047C43.6198 45.4089 43.75 45.5781 43.8281 45.8125C43.8281 45.9948 43.8932 46.151 44.0234 46.2812C44.1016 46.75 44.0625 47.1797 43.9062 47.5703C43.776 47.9609 43.4896 48.1823 43.0469 48.2344C42.7604 48.3646 42.6042 48.4427 42.5781 48.4688C42.5781 48.4948 42.5651 48.5208 42.5391 48.5469C42.2526 48.651 42.0052 48.7682 41.7969 48.8984C41.6146 49.0026 41.3932 49.0417 41.1328 49.0156C41.0807 49.0677 41.0156 49.1068 40.9375 49.1328C40.8854 49.1328 40.8073 49.1458 40.7031 49.1719C40.3646 49.224 40.1172 49.1719 39.9609 49.0156C39.8047 48.8333 39.6224 48.7161 39.4141 48.6641C39.2578 48.5078 39.1797 48.3255 39.1797 48.1172ZM39.375 54.875C39.1406 54.5885 38.9974 54.3281 38.9453 54.0938C38.9193 53.8594 38.8672 53.6771 38.7891 53.5469C38.763 53.2865 38.7891 53.0391 38.8672 52.8047C38.9453 52.5443 39.0104 52.2839 39.0625 52.0234C39.1406 51.9714 39.2188 51.9193 39.2969 51.8672C39.401 51.8151 39.5052 51.75 39.6094 51.6719C39.7396 51.4635 39.9089 51.3073 40.1172 51.2031C40.1953 51.125 40.2604 51.0469 40.3125 50.9688C40.3906 50.8906 40.4688 50.8385 40.5469 50.8125C40.625 50.7865 40.7031 50.7865 40.7812 50.8125C40.8594 50.8125 40.9375 50.8125 41.0156 50.8125C41.3021 50.7083 41.6797 50.6953 42.1484 50.7734C42.2526 50.7214 42.3698 50.7083 42.5 50.7344C42.6562 50.7344 42.7995 50.7734 42.9297 50.8516C43.0339 50.9036 43.112 50.9297 43.1641 50.9297C43.2422 50.9036 43.3333 50.9036 43.4375 50.9297C43.724 50.9818 43.9453 51.112 44.1016 51.3203C44.2578 51.5026 44.4401 51.6589 44.6484 51.7891C44.7266 51.9193 44.7786 52.0625 44.8047 52.2188C44.8568 52.375 44.9219 52.5182 45 52.6484C45.0781 53.013 45.1172 53.3776 45.1172 53.7422C45.1432 54.0807 45.1172 54.4323 45.0391 54.7969C45.0391 55.1875 45.0521 55.487 45.0781 55.6953C45.1302 55.9036 45.1432 56.112 45.1172 56.3203C45.013 56.5286 44.9609 56.6849 44.9609 56.7891C44.987 57.1536 44.987 57.388 44.9609 57.4922C44.9349 57.5964 44.9479 57.7005 45 57.8047C45.0521 57.9609 45.1302 58.1042 45.2344 58.2344C45.3646 58.3385 45.4557 58.4948 45.5078 58.7031C45.5339 58.8073 45.5469 58.8984 45.5469 58.9766C45.5469 59.0286 45.5729 59.0807 45.625 59.1328C45.599 59.5495 45.599 59.9922 45.625 60.4609C45.651 60.9036 45.612 61.3333 45.5078 61.75C45.5339 61.9583 45.5208 62.1536 45.4688 62.3359C45.4427 62.5182 45.4427 62.7005 45.4688 62.8828C45.4688 63.013 45.4818 63.1172 45.5078 63.1953C45.5339 63.2734 45.5599 63.3646 45.5859 63.4688C45.638 63.6771 45.638 63.8854 45.5859 64.0938C45.5599 64.276 45.5859 64.4583 45.6641 64.6406C45.6641 64.901 45.6901 65.1484 45.7422 65.3828C45.8203 65.5911 45.8594 65.7995 45.8594 66.0078C45.8594 66.1901 45.8984 66.3464 45.9766 66.4766C46.0547 66.6068 46.1068 66.763 46.1328 66.9453C46.1328 67.2578 46.1458 67.4661 46.1719 67.5703C46.1979 67.6484 46.224 67.7526 46.25 67.8828C46.25 68.1953 46.1979 68.4818 46.0938 68.7422C45.9896 69.0026 45.8724 69.263 45.7422 69.5234C45.5599 69.6536 45.4167 69.8099 45.3125 69.9922C45.1302 70.1484 44.9349 70.2786 44.7266 70.3828C44.5443 70.487 44.349 70.6042 44.1406 70.7344C43.8281 70.6823 43.6328 70.5391 43.5547 70.3047C43.3464 70.2526 43.1771 70.2656 43.0469 70.3438C42.9167 70.4219 42.7865 70.487 42.6562 70.5391C42.526 70.4609 42.3828 70.4479 42.2266 70.5C42.0703 70.5521 41.9271 70.5911 41.7969 70.6172C41.4844 70.4609 41.263 70.2656 41.1328 70.0312C40.9766 69.6667 40.8594 69.4453 40.7812 69.3672C40.7292 69.2891 40.6771 69.1979 40.625 69.0938C40.5729 68.8333 40.5208 68.7031 40.4688 68.7031C40.4427 68.6771 40.4167 68.638 40.3906 68.5859C40.4427 68.1432 40.4948 67.8307 40.5469 67.6484C40.625 67.4661 40.7031 67.2839 40.7812 67.1016C40.9896 66.6589 41.0938 66.3464 41.0938 66.1641C41.3021 65.4609 41.4844 64.9141 41.6406 64.5234C41.8229 64.1328 41.901 63.6771 41.875 63.1562C42.0052 62.8698 42.0182 62.5964 41.9141 62.3359C41.8099 62.0495 41.7969 61.763 41.875 61.4766C41.849 61.3724 41.8229 61.2943 41.7969 61.2422C41.7708 61.1641 41.7839 61.0729 41.8359 60.9688C41.6536 60.7344 41.6016 60.4349 41.6797 60.0703C41.6797 59.888 41.6536 59.7448 41.6016 59.6406C41.5755 59.5365 41.6146 59.4453 41.7188 59.3672C41.6406 59.2891 41.6276 59.2109 41.6797 59.1328C41.7578 59.0547 41.7448 58.9896 41.6406 58.9375C41.7188 58.7812 41.7318 58.625 41.6797 58.4688C41.6536 58.2865 41.6536 58.0911 41.6797 57.8828C41.5755 57.5703 41.5234 57.2969 41.5234 57.0625C41.5495 56.8021 41.5495 56.5547 41.5234 56.3203C41.4974 56.2161 41.4583 56.125 41.4062 56.0469C41.3802 55.9688 41.3802 55.8776 41.4062 55.7734C40.9375 55.5651 40.5859 55.4089 40.3516 55.3047C40.1432 55.2005 39.9219 55.0964 39.6875 54.9922L39.375 54.875ZM39.1016 56.7109C39.2578 56.6068 39.388 56.5417 39.4922 56.5156C39.5964 56.4896 39.7135 56.5026 39.8438 56.5547C40.1302 56.6849 40.3516 56.9453 40.5078 57.3359C40.6641 57.7005 40.625 58 40.3906 58.2344C40.3125 58.3125 40.1823 58.3776 40 58.4297C39.8438 58.4818 39.7005 58.4557 39.5703 58.3516C39.4922 58.2995 39.4141 58.2214 39.3359 58.1172C39.2839 58.013 39.2188 57.8958 39.1406 57.7656C39.0885 57.6875 39.0104 57.5573 38.9062 57.375C38.8281 57.1667 38.8151 56.9974 38.8672 56.8672L39.1016 56.7109ZM46.25 71.3594C46.0156 71.2031 45.9245 70.9297 45.9766 70.5391C46.0286 70.4089 46.0938 70.3177 46.1719 70.2656C46.276 70.1875 46.3932 70.1094 46.5234 70.0312C46.8099 69.901 47.0703 69.862 47.3047 69.9141C47.5391 69.9661 47.6693 70.0573 47.6953 70.1875C47.6953 70.2396 47.6823 70.3177 47.6562 70.4219C47.6302 70.526 47.5911 70.6042 47.5391 70.6562C47.513 70.7083 47.4349 70.8125 47.3047 70.9688C47.1745 71.125 47.0833 71.2161 47.0312 71.2422L46.5234 71.4375L46.25 71.3594ZM55.8594 47.7266C55.7552 47.6745 55.612 47.6745 55.4297 47.7266C55.2734 47.5703 55.1953 47.4401 55.1953 47.3359C55.2214 47.2057 55.2214 47.0755 55.1953 46.9453C55.2214 46.8932 55.2474 46.8411 55.2734 46.7891C55.3255 46.7109 55.3776 46.6328 55.4297 46.5547C55.7422 46.6068 55.9375 46.6589 56.0156 46.7109C56.0938 46.763 56.1589 46.8411 56.2109 46.9453C56.237 47.1797 56.2109 47.362 56.1328 47.4922C56.0807 47.5964 55.9896 47.6745 55.8594 47.7266ZM62.1875 47.2578C62.5 47.3099 62.6823 47.362 62.7344 47.4141C62.7865 47.4661 62.8255 47.4922 62.8516 47.4922C62.9557 47.6484 62.9427 47.8177 62.8125 48C62.6823 48.1823 62.5521 48.2995 62.4219 48.3516C62.1354 48.4297 61.862 48.4427 61.6016 48.3906C61.3411 48.3385 61.2109 48.1562 61.2109 47.8438C61.2109 47.6094 61.25 47.4271 61.3281 47.2969C61.5625 47.1927 61.7188 47.1406 61.7969 47.1406C61.901 47.1406 62.0182 47.1406 62.1484 47.1406L62.1875 47.2578ZM56.4062 54.9922C56.4583 54.7839 56.4844 54.6276 56.4844 54.5234C56.4844 54.4193 56.5104 54.3281 56.5625 54.25C57.1094 54.0417 57.487 54.0026 57.6953 54.1328C57.9036 54.263 58.0729 54.4062 58.2031 54.5625C58.3333 54.9792 58.2292 55.2526 57.8906 55.3828C57.5781 55.513 57.2656 55.5911 56.9531 55.6172C56.8229 55.513 56.6927 55.4349 56.5625 55.3828C56.4323 55.3047 56.3802 55.1745 56.4062 54.9922ZM55.0781 54.6016C55.1562 54.7578 55.1562 54.9141 55.0781 55.0703C55.026 55.2005 54.9219 55.2656 54.7656 55.2656C54.6875 55.2656 54.6094 55.2526 54.5312 55.2266C54.4792 55.1745 54.401 55.1354 54.2969 55.1094C54.2969 54.7448 54.388 54.5495 54.5703 54.5234C54.7786 54.4714 54.9479 54.4974 55.0781 54.6016ZM55.8203 69.0938C55.9245 69.0938 56.0286 69.1198 56.1328 69.1719C56.263 69.1979 56.3802 69.263 56.4844 69.3672C56.5885 69.4453 56.6536 69.5495 56.6797 69.6797C56.7057 69.7839 56.6797 69.9141 56.6016 70.0703C56.5495 70.1745 56.3802 70.2917 56.0938 70.4219C55.8333 70.5521 55.5859 70.5911 55.3516 70.5391C55.2995 70.487 55.2214 70.4349 55.1172 70.3828C55.013 70.3047 54.9479 70.2396 54.9219 70.1875C54.8177 70.0052 54.7786 69.849 54.8047 69.7188C54.8568 69.6146 54.8958 69.5104 54.9219 69.4062C54.974 69.3021 55.0651 69.224 55.1953 69.1719L55.8203 69.0938ZM60.3516 65.5391C60.5339 65.487 60.7031 65.4479 60.8594 65.4219C61.0417 65.3958 61.2109 65.3698 61.3672 65.3438C61.4714 65.3438 61.5625 65.3568 61.6406 65.3828C61.7188 65.3828 61.7839 65.3568 61.8359 65.3047C61.9141 65.3828 62.0182 65.4089 62.1484 65.3828C62.3047 65.3307 62.4089 65.3047 62.4609 65.3047C62.7474 65.2786 62.9297 65.2526 63.0078 65.2266C63.112 65.1745 63.2161 65.1484 63.3203 65.1484C63.5026 65.1484 63.6198 65.1354 63.6719 65.1094C63.75 65.0833 63.8151 65.0833 63.8672 65.1094C63.9714 65.1615 64.0495 65.2135 64.1016 65.2656C64.1536 65.3177 64.2057 65.3698 64.2578 65.4219C64.3359 65.8125 64.388 66.0339 64.4141 66.0859C64.4401 66.138 64.4792 66.2031 64.5312 66.2812C64.6354 66.5938 64.6615 66.8021 64.6094 66.9062C64.5573 66.9844 64.5443 67.1016 64.5703 67.2578C64.4661 67.4661 64.388 67.7005 64.3359 67.9609C64.2839 68.1953 64.1536 68.3776 63.9453 68.5078C63.5547 68.7943 63.2031 69.0286 62.8906 69.2109C62.5781 69.3932 62.2396 69.4583 61.875 69.4062C61.6667 69.5104 61.4714 69.5234 61.2891 69.4453C61.1328 69.3672 60.9896 69.263 60.8594 69.1328C60.5729 69.1068 60.4167 69.0807 60.3906 69.0547C60.3906 69.0026 60.3646 68.9505 60.3125 68.8984C59.9479 68.6641 59.7005 68.5469 59.5703 68.5469C59.4661 68.5208 59.349 68.4948 59.2188 68.4688C58.9062 68.4688 58.6458 68.4297 58.4375 68.3516C58.2552 68.2734 58.0729 68.2865 57.8906 68.3906C57.5781 68.3646 57.3307 68.3516 57.1484 68.3516C56.9661 68.3516 56.8099 68.3125 56.6797 68.2344C56.5495 68.2604 56.3932 68.2604 56.2109 68.2344C56.0547 68.1823 55.8984 68.1432 55.7422 68.1172C55.5078 68.1693 55.2995 68.2214 55.1172 68.2734C54.9349 68.3255 54.7656 68.4036 54.6094 68.5078C54.401 68.638 54.2969 68.7161 54.2969 68.7422C54.2969 68.7682 54.2708 68.8073 54.2188 68.8594C54.0625 68.9635 53.9583 69.0677 53.9062 69.1719C53.8542 69.25 53.8021 69.3151 53.75 69.3672C53.6458 69.4193 53.5286 69.4583 53.3984 69.4844C53.2943 69.5104 53.1771 69.5495 53.0469 69.6016C52.8646 69.7318 52.6823 69.7969 52.5 69.7969C52.3177 69.7708 52.1224 69.7839 51.9141 69.8359C51.6536 69.888 51.3932 69.901 51.1328 69.875C50.8724 69.8229 50.625 69.7708 50.3906 69.7188C50.1302 69.7188 49.987 69.7188 49.9609 69.7188C49.9609 69.7188 49.9609 69.6927 49.9609 69.6406C49.8568 69.6667 49.7526 69.6406 49.6484 69.5625C49.5703 69.4844 49.4661 69.4193 49.3359 69.3672C49.2318 69.1849 49.1406 68.9766 49.0625 68.7422C49.0104 68.4818 49.0365 68.2474 49.1406 68.0391C49.1667 67.5703 49.1927 67.0885 49.2188 66.5938C49.2708 66.0729 49.388 65.6042 49.5703 65.1875C49.7266 65.0052 49.8698 64.875 50 64.7969C50.1562 64.6927 50.2604 64.5365 50.3125 64.3281C50.4688 64.1979 50.5599 64.1328 50.5859 64.1328C50.638 64.1068 50.6641 64.0677 50.6641 64.0156C50.8984 63.651 51.0677 63.4557 51.1719 63.4297C51.276 63.3776 51.3542 63.2865 51.4062 63.1562C51.6927 63.0781 51.849 63.013 51.875 62.9609C51.901 62.8828 51.9531 62.8438 52.0312 62.8438C52.0833 62.7656 52.1484 62.6875 52.2266 62.6094C52.3307 62.5312 52.4089 62.4401 52.4609 62.3359C52.8255 62.0234 53.125 61.6458 53.3594 61.2031C53.6198 60.7604 53.9714 60.3958 54.4141 60.1094C54.5182 59.875 54.6875 59.7057 54.9219 59.6016C55.1302 59.4193 55.3255 59.224 55.5078 59.0156C55.7161 58.7812 55.9505 58.599 56.2109 58.4688C56.3411 58.2865 56.5104 58.1432 56.7188 58.0391C56.9531 57.9349 57.1484 57.8177 57.3047 57.6875C57.487 57.5833 57.6302 57.5052 57.7344 57.4531C57.9167 57.1927 58.112 56.9844 58.3203 56.8281C58.5286 56.6719 58.737 56.4896 58.9453 56.2812C58.9714 56.1771 59.0104 56.099 59.0625 56.0469C59.1146 55.9688 59.1276 55.8776 59.1016 55.7734C59.3099 55.4349 59.5182 55.1224 59.7266 54.8359C59.9089 54.5234 60.013 54.3021 60.0391 54.1719C60.0911 54.0417 60.1432 53.8854 60.1953 53.7031C60.2474 53.5208 60.2214 53.3906 60.1172 53.3125C60.013 53.2344 59.8958 53.1823 59.7656 53.1562C59.401 53.2083 59.1146 53.2214 58.9062 53.1953C58.724 53.1693 58.5547 53.2214 58.3984 53.3516C58.2422 53.3516 58.0859 53.3646 57.9297 53.3906C57.7734 53.3906 57.6172 53.3906 57.4609 53.3906C57.2786 53.3906 57.0833 53.4167 56.875 53.4688C56.6667 53.4948 56.4714 53.4948 56.2891 53.4688C56.237 53.4427 56.1589 53.4297 56.0547 53.4297C55.9505 53.4297 55.8594 53.4297 55.7812 53.4297C55.4688 53.5078 55.2865 53.5599 55.2344 53.5859C55.2083 53.612 55.1693 53.638 55.1172 53.6641C54.9349 53.7161 54.7266 53.7682 54.4922 53.8203C54.2839 53.8464 54.0625 53.8333 53.8281 53.7812C53.4896 53.7812 53.1901 53.8333 52.9297 53.9375C52.6693 54.0156 52.474 54.1849 52.3438 54.4453C52.2396 54.4453 52.1615 54.4844 52.1094 54.5625C52.0833 54.6146 52.0443 54.6667 51.9922 54.7188C51.7057 54.849 51.5234 54.9401 51.4453 54.9922C51.3932 55.0443 51.3151 55.0833 51.2109 55.1094C50.9505 55.1094 50.6901 55.1354 50.4297 55.1875C50.2995 55.2135 50.1693 55.2396 50.0391 55.2656C49.9349 55.2656 49.8177 55.2786 49.6875 55.3047C49.6094 55.2266 49.5052 55.1745 49.375 55.1484C49.2448 55.1224 49.1146 55.1094 48.9844 55.1094C48.8542 55.0833 48.724 55.0443 48.5938 54.9922C48.4896 54.9401 48.4245 54.8359 48.3984 54.6797C48.3984 54.4453 48.3464 54.2109 48.2422 53.9766C48.1641 53.7422 48.112 53.5208 48.0859 53.3125C48.0859 53.1823 48.099 53.0651 48.125 52.9609C48.1771 52.8568 48.2161 52.7396 48.2422 52.6094C48.2422 52.5312 48.2161 52.4531 48.1641 52.375C48.138 52.2708 48.138 52.1667 48.1641 52.0625C48.138 51.75 48.138 51.5677 48.1641 51.5156C48.2161 51.4375 48.2552 51.3464 48.2812 51.2422C48.3854 50.9036 48.4505 50.6953 48.4766 50.6172C48.5026 50.5391 48.5417 50.4479 48.5938 50.3438C48.75 50.2135 48.8411 50.1484 48.8672 50.1484C48.9193 50.1484 48.9714 50.1354 49.0234 50.1094C49.1016 50.0573 49.1667 50.0052 49.2188 49.9531C49.2708 49.875 49.349 49.849 49.4531 49.875C49.6615 49.7188 49.974 49.6276 50.3906 49.6016C50.8073 49.5755 51.1328 49.6276 51.3672 49.7578C51.4714 49.7318 51.5625 49.7448 51.6406 49.7969C51.7188 49.849 51.7969 49.888 51.875 49.9141C52.0312 49.888 52.2005 49.901 52.3828 49.9531C52.5651 49.9792 52.7604 49.9922 52.9688 49.9922C53.099 49.9661 53.2422 49.9401 53.3984 49.9141C53.5547 49.888 53.6979 49.901 53.8281 49.9531C53.9323 49.9531 54.0234 49.9792 54.1016 50.0312C54.1797 50.0573 54.2578 50.0443 54.3359 49.9922C54.4661 50.0443 54.5833 50.0703 54.6875 50.0703C54.8177 50.0443 54.9349 50.0573 55.0391 50.1094C55.1172 50.0573 55.2083 50.0443 55.3125 50.0703C55.4427 50.0703 55.5599 50.0833 55.6641 50.1094C55.8724 50.0312 56.0807 50.0052 56.2891 50.0312C56.5234 50.0573 56.7578 50.0312 56.9922 49.9531C57.1224 49.9531 57.2396 49.9531 57.3438 49.9531C57.474 49.9531 57.5911 49.9531 57.6953 49.9531C58.0078 49.875 58.1771 49.849 58.2031 49.875C58.2552 49.901 58.3073 49.901 58.3594 49.875C58.8021 49.875 59.0755 49.875 59.1797 49.875C59.2839 49.849 59.4401 49.8229 59.6484 49.7969C60.013 49.875 60.3516 49.9141 60.6641 49.9141C61.0026 49.888 61.3411 49.901 61.6797 49.9531C61.7578 50.0052 61.862 50.0443 61.9922 50.0703C62.1484 50.0703 62.2917 50.0833 62.4219 50.1094C62.526 50.2396 62.6432 50.3698 62.7734 50.5C62.9036 50.6042 63.0729 50.6562 63.2812 50.6562C63.3854 50.7865 63.4766 50.9297 63.5547 51.0859C63.6589 51.2161 63.75 51.3464 63.8281 51.4766C63.8281 51.6849 63.8281 51.8802 63.8281 52.0625C63.8542 52.2188 63.8542 52.388 63.8281 52.5703C63.8021 52.6745 63.776 52.7786 63.75 52.8828C63.724 52.9609 63.7109 53.0521 63.7109 53.1562C63.737 53.2604 63.763 53.3646 63.7891 53.4688C63.8151 53.5469 63.8151 53.625 63.7891 53.7031C63.6589 54.1198 63.5547 54.4323 63.4766 54.6406C63.4245 54.8229 63.3724 55.0182 63.3203 55.2266C63.3464 55.487 63.2812 55.6953 63.125 55.8516C62.9688 55.9818 62.8385 56.125 62.7344 56.2812C62.5521 56.3594 62.4089 56.4375 62.3047 56.5156C62.2005 56.5938 62.0964 56.6849 61.9922 56.7891C61.8099 57.0755 61.6146 57.3359 61.4062 57.5703C61.1979 57.8047 61.0286 58.0781 60.8984 58.3906C60.7682 58.651 60.599 58.8594 60.3906 59.0156C60.2083 59.1458 60.026 59.3021 59.8438 59.4844C59.7656 59.6927 59.6354 59.849 59.4531 59.9531C59.2708 60.0573 59.0755 60.1745 58.8672 60.3047C58.7109 60.3307 58.5938 60.3828 58.5156 60.4609C58.4375 60.513 58.3333 60.5521 58.2031 60.5781C57.9948 60.8125 57.7474 61.0078 57.4609 61.1641C57.2005 61.2943 56.9661 61.4635 56.7578 61.6719C56.6276 61.8802 56.4844 62.0495 56.3281 62.1797C56.1719 62.3099 56.0677 62.4792 56.0156 62.6875C55.7812 63.0521 55.5729 63.3255 55.3906 63.5078C55.2344 63.6901 55.1172 63.9245 55.0391 64.2109C54.7005 64.6016 54.4531 64.9661 54.2969 65.3047C54.1667 65.4349 54.0495 65.5651 53.9453 65.6953C53.8411 65.8255 53.724 65.9557 53.5938 66.0859C53.4896 66.1641 53.3854 66.2422 53.2812 66.3203C53.1771 66.3984 53.112 66.5156 53.0859 66.6719C53.138 66.75 53.2031 66.776 53.2812 66.75C53.3854 66.724 53.4766 66.6849 53.5547 66.6328C53.7109 66.6589 53.8542 66.6328 53.9844 66.5547C54.1146 66.4505 54.2578 66.4115 54.4141 66.4375C54.4661 66.3854 54.5312 66.3333 54.6094 66.2812C54.6875 66.2292 54.7526 66.1771 54.8047 66.125C55.1432 65.9427 55.4167 65.8516 55.625 65.8516C55.8333 65.8516 56.0417 65.8385 56.25 65.8125C56.4062 65.7865 56.5104 65.7604 56.5625 65.7344C56.6146 65.6823 56.6667 65.6823 56.7188 65.7344C56.9792 65.6042 57.2526 65.5911 57.5391 65.6953C57.8255 65.7734 58.112 65.7865 58.3984 65.7344C58.6068 65.7865 58.763 65.7995 58.8672 65.7734C58.9974 65.7214 59.1146 65.6953 59.2188 65.6953C59.5052 65.6693 59.7135 65.6302 59.8438 65.5781C60 65.5 60.1693 65.487 60.3516 65.5391ZM63.125 70.9688C63.125 71.125 63.0729 71.2682 62.9688 71.3984C62.8646 71.5026 62.7344 71.5807 62.5781 71.6328C62.4219 71.6589 62.2656 71.6458 62.1094 71.5938C61.9792 71.5417 61.901 71.4245 61.875 71.2422C61.849 71.112 61.862 71.0208 61.9141 70.9688C61.9661 70.9167 62.0182 70.8516 62.0703 70.7734C62.2526 70.6432 62.3958 70.5651 62.5 70.5391C62.6042 70.487 62.6823 70.4609 62.7344 70.4609C62.7865 70.513 62.8516 70.6042 62.9297 70.7344C63.0078 70.8385 63.0729 70.9167 63.125 70.9688ZM72.8516 47.7266C72.7474 47.6745 72.6042 47.6745 72.4219 47.7266C72.2656 47.5703 72.1875 47.4401 72.1875 47.3359C72.2135 47.2057 72.2135 47.0755 72.1875 46.9453C72.2135 46.8932 72.2396 46.8411 72.2656 46.7891C72.3177 46.7109 72.3698 46.6328 72.4219 46.5547C72.7344 46.6068 72.9297 46.6589 73.0078 46.7109C73.0859 46.763 73.151 46.8411 73.2031 46.9453C73.2292 47.1797 73.2031 47.362 73.125 47.4922C73.0729 47.5964 72.9818 47.6745 72.8516 47.7266ZM79.1797 47.2578C79.4922 47.3099 79.6745 47.362 79.7266 47.4141C79.7786 47.4661 79.8177 47.4922 79.8438 47.4922C79.9479 47.6484 79.9349 47.8177 79.8047 48C79.6745 48.1823 79.5443 48.2995 79.4141 48.3516C79.1276 48.4297 78.8542 48.4427 78.5938 48.3906C78.3333 48.3385 78.2031 48.1562 78.2031 47.8438C78.2031 47.6094 78.2422 47.4271 78.3203 47.2969C78.5547 47.1927 78.7109 47.1406 78.7891 47.1406C78.8932 47.1406 79.0104 47.1406 79.1406 47.1406L79.1797 47.2578ZM73.3984 54.9922C73.4505 54.7839 73.4766 54.6276 73.4766 54.5234C73.4766 54.4193 73.5026 54.3281 73.5547 54.25C74.1016 54.0417 74.4792 54.0026 74.6875 54.1328C74.8958 54.263 75.0651 54.4062 75.1953 54.5625C75.3255 54.9792 75.2214 55.2526 74.8828 55.3828C74.5703 55.513 74.2578 55.5911 73.9453 55.6172C73.8151 55.513 73.6849 55.4349 73.5547 55.3828C73.4245 55.3047 73.3724 55.1745 73.3984 54.9922ZM72.0703 54.6016C72.1484 54.7578 72.1484 54.9141 72.0703 55.0703C72.0182 55.2005 71.9141 55.2656 71.7578 55.2656C71.6797 55.2656 71.6016 55.2526 71.5234 55.2266C71.4714 55.1745 71.3932 55.1354 71.2891 55.1094C71.2891 54.7448 71.3802 54.5495 71.5625 54.5234C71.7708 54.4714 71.9401 54.4974 72.0703 54.6016ZM72.8125 69.0938C72.9167 69.0938 73.0208 69.1198 73.125 69.1719C73.2552 69.1979 73.3724 69.263 73.4766 69.3672C73.5807 69.4453 73.6458 69.5495 73.6719 69.6797C73.6979 69.7839 73.6719 69.9141 73.5938 70.0703C73.5417 70.1745 73.3724 70.2917 73.0859 70.4219C72.8255 70.5521 72.5781 70.5911 72.3438 70.5391C72.2917 70.487 72.2135 70.4349 72.1094 70.3828C72.0052 70.3047 71.9401 70.2396 71.9141 70.1875C71.8099 70.0052 71.7708 69.849 71.7969 69.7188C71.849 69.6146 71.888 69.5104 71.9141 69.4062C71.9661 69.3021 72.0573 69.224 72.1875 69.1719L72.8125 69.0938ZM77.3438 65.5391C77.526 65.487 77.6953 65.4479 77.8516 65.4219C78.0339 65.3958 78.2031 65.3698 78.3594 65.3438C78.4635 65.3438 78.5547 65.3568 78.6328 65.3828C78.7109 65.3828 78.776 65.3568 78.8281 65.3047C78.9062 65.3828 79.0104 65.4089 79.1406 65.3828C79.2969 65.3307 79.401 65.3047 79.4531 65.3047C79.7396 65.2786 79.9219 65.2526 80 65.2266C80.1042 65.1745 80.2083 65.1484 80.3125 65.1484C80.4948 65.1484 80.612 65.1354 80.6641 65.1094C80.7422 65.0833 80.8073 65.0833 80.8594 65.1094C80.9635 65.1615 81.0417 65.2135 81.0938 65.2656C81.1458 65.3177 81.1979 65.3698 81.25 65.4219C81.3281 65.8125 81.3802 66.0339 81.4062 66.0859C81.4323 66.138 81.4714 66.2031 81.5234 66.2812C81.6276 66.5938 81.6536 66.8021 81.6016 66.9062C81.5495 66.9844 81.5365 67.1016 81.5625 67.2578C81.4583 67.4661 81.3802 67.7005 81.3281 67.9609C81.276 68.1953 81.1458 68.3776 80.9375 68.5078C80.5469 68.7943 80.1953 69.0286 79.8828 69.2109C79.5703 69.3932 79.2318 69.4583 78.8672 69.4062C78.6589 69.5104 78.4635 69.5234 78.2812 69.4453C78.125 69.3672 77.9818 69.263 77.8516 69.1328C77.5651 69.1068 77.4089 69.0807 77.3828 69.0547C77.3828 69.0026 77.3568 68.9505 77.3047 68.8984C76.9401 68.6641 76.6927 68.5469 76.5625 68.5469C76.4583 68.5208 76.3411 68.4948 76.2109 68.4688C75.8984 68.4688 75.638 68.4297 75.4297 68.3516C75.2474 68.2734 75.0651 68.2865 74.8828 68.3906C74.5703 68.3646 74.3229 68.3516 74.1406 68.3516C73.9583 68.3516 73.8021 68.3125 73.6719 68.2344C73.5417 68.2604 73.3854 68.2604 73.2031 68.2344C73.0469 68.1823 72.8906 68.1432 72.7344 68.1172C72.5 68.1693 72.2917 68.2214 72.1094 68.2734C71.9271 68.3255 71.7578 68.4036 71.6016 68.5078C71.3932 68.638 71.2891 68.7161 71.2891 68.7422C71.2891 68.7682 71.263 68.8073 71.2109 68.8594C71.0547 68.9635 70.9505 69.0677 70.8984 69.1719C70.8464 69.25 70.7943 69.3151 70.7422 69.3672C70.638 69.4193 70.5208 69.4583 70.3906 69.4844C70.2865 69.5104 70.1693 69.5495 70.0391 69.6016C69.8568 69.7318 69.6745 69.7969 69.4922 69.7969C69.3099 69.7708 69.1146 69.7839 68.9062 69.8359C68.6458 69.888 68.3854 69.901 68.125 69.875C67.8646 69.8229 67.6172 69.7708 67.3828 69.7188C67.1224 69.7188 66.9792 69.7188 66.9531 69.7188C66.9531 69.7188 66.9531 69.6927 66.9531 69.6406C66.849 69.6667 66.7448 69.6406 66.6406 69.5625C66.5625 69.4844 66.4583 69.4193 66.3281 69.3672C66.224 69.1849 66.1328 68.9766 66.0547 68.7422C66.0026 68.4818 66.0286 68.2474 66.1328 68.0391C66.1589 67.5703 66.1849 67.0885 66.2109 66.5938C66.263 66.0729 66.3802 65.6042 66.5625 65.1875C66.7188 65.0052 66.862 64.875 66.9922 64.7969C67.1484 64.6927 67.2526 64.5365 67.3047 64.3281C67.4609 64.1979 67.5521 64.1328 67.5781 64.1328C67.6302 64.1068 67.6562 64.0677 67.6562 64.0156C67.8906 63.651 68.0599 63.4557 68.1641 63.4297C68.2682 63.3776 68.3464 63.2865 68.3984 63.1562C68.6849 63.0781 68.8411 63.013 68.8672 62.9609C68.8932 62.8828 68.9453 62.8438 69.0234 62.8438C69.0755 62.7656 69.1406 62.6875 69.2188 62.6094C69.3229 62.5312 69.401 62.4401 69.4531 62.3359C69.8177 62.0234 70.1172 61.6458 70.3516 61.2031C70.612 60.7604 70.9635 60.3958 71.4062 60.1094C71.5104 59.875 71.6797 59.7057 71.9141 59.6016C72.1224 59.4193 72.3177 59.224 72.5 59.0156C72.7083 58.7812 72.9427 58.599 73.2031 58.4688C73.3333 58.2865 73.5026 58.1432 73.7109 58.0391C73.9453 57.9349 74.1406 57.8177 74.2969 57.6875C74.4792 57.5833 74.6224 57.5052 74.7266 57.4531C74.9089 57.1927 75.1042 56.9844 75.3125 56.8281C75.5208 56.6719 75.7292 56.4896 75.9375 56.2812C75.9635 56.1771 76.0026 56.099 76.0547 56.0469C76.1068 55.9688 76.1198 55.8776 76.0938 55.7734C76.3021 55.4349 76.5104 55.1224 76.7188 54.8359C76.901 54.5234 77.0052 54.3021 77.0312 54.1719C77.0833 54.0417 77.1354 53.8854 77.1875 53.7031C77.2396 53.5208 77.2135 53.3906 77.1094 53.3125C77.0052 53.2344 76.888 53.1823 76.7578 53.1562C76.3932 53.2083 76.1068 53.2214 75.8984 53.1953C75.7161 53.1693 75.5469 53.2214 75.3906 53.3516C75.2344 53.3516 75.0781 53.3646 74.9219 53.3906C74.7656 53.3906 74.6094 53.3906 74.4531 53.3906C74.2708 53.3906 74.0755 53.4167 73.8672 53.4688C73.6589 53.4948 73.4635 53.4948 73.2812 53.4688C73.2292 53.4427 73.151 53.4297 73.0469 53.4297C72.9427 53.4297 72.8516 53.4297 72.7734 53.4297C72.4609 53.5078 72.2786 53.5599 72.2266 53.5859C72.2005 53.612 72.1615 53.638 72.1094 53.6641C71.9271 53.7161 71.7188 53.7682 71.4844 53.8203C71.276 53.8464 71.0547 53.8333 70.8203 53.7812C70.4818 53.7812 70.1823 53.8333 69.9219 53.9375C69.6615 54.0156 69.4661 54.1849 69.3359 54.4453C69.2318 54.4453 69.1536 54.4844 69.1016 54.5625C69.0755 54.6146 69.0365 54.6667 68.9844 54.7188C68.6979 54.849 68.5156 54.9401 68.4375 54.9922C68.3854 55.0443 68.3073 55.0833 68.2031 55.1094C67.9427 55.1094 67.6823 55.1354 67.4219 55.1875C67.2917 55.2135 67.1615 55.2396 67.0312 55.2656C66.9271 55.2656 66.8099 55.2786 66.6797 55.3047C66.6016 55.2266 66.4974 55.1745 66.3672 55.1484C66.237 55.1224 66.1068 55.1094 65.9766 55.1094C65.8464 55.0833 65.7161 55.0443 65.5859 54.9922C65.4818 54.9401 65.4167 54.8359 65.3906 54.6797C65.3906 54.4453 65.3385 54.2109 65.2344 53.9766C65.1562 53.7422 65.1042 53.5208 65.0781 53.3125C65.0781 53.1823 65.0911 53.0651 65.1172 52.9609C65.1693 52.8568 65.2083 52.7396 65.2344 52.6094C65.2344 52.5312 65.2083 52.4531 65.1562 52.375C65.1302 52.2708 65.1302 52.1667 65.1562 52.0625C65.1302 51.75 65.1302 51.5677 65.1562 51.5156C65.2083 51.4375 65.2474 51.3464 65.2734 51.2422C65.3776 50.9036 65.4427 50.6953 65.4688 50.6172C65.4948 50.5391 65.5339 50.4479 65.5859 50.3438C65.7422 50.2135 65.8333 50.1484 65.8594 50.1484C65.9115 50.1484 65.9635 50.1354 66.0156 50.1094C66.0938 50.0573 66.1589 50.0052 66.2109 49.9531C66.263 49.875 66.3411 49.849 66.4453 49.875C66.6536 49.7188 66.9661 49.6276 67.3828 49.6016C67.7995 49.5755 68.125 49.6276 68.3594 49.7578C68.4635 49.7318 68.5547 49.7448 68.6328 49.7969C68.7109 49.849 68.7891 49.888 68.8672 49.9141C69.0234 49.888 69.1927 49.901 69.375 49.9531C69.5573 49.9792 69.7526 49.9922 69.9609 49.9922C70.0911 49.9661 70.2344 49.9401 70.3906 49.9141C70.5469 49.888 70.6901 49.901 70.8203 49.9531C70.9245 49.9531 71.0156 49.9792 71.0938 50.0312C71.1719 50.0573 71.25 50.0443 71.3281 49.9922C71.4583 50.0443 71.5755 50.0703 71.6797 50.0703C71.8099 50.0443 71.9271 50.0573 72.0312 50.1094C72.1094 50.0573 72.2005 50.0443 72.3047 50.0703C72.4349 50.0703 72.5521 50.0833 72.6562 50.1094C72.8646 50.0312 73.0729 50.0052 73.2812 50.0312C73.5156 50.0573 73.75 50.0312 73.9844 49.9531C74.1146 49.9531 74.2318 49.9531 74.3359 49.9531C74.4661 49.9531 74.5833 49.9531 74.6875 49.9531C75 49.875 75.1693 49.849 75.1953 49.875C75.2474 49.901 75.2995 49.901 75.3516 49.875C75.7943 49.875 76.0677 49.875 76.1719 49.875C76.276 49.849 76.4323 49.8229 76.6406 49.7969C77.0052 49.875 77.3438 49.9141 77.6562 49.9141C77.9948 49.888 78.3333 49.901 78.6719 49.9531C78.75 50.0052 78.8542 50.0443 78.9844 50.0703C79.1406 50.0703 79.2839 50.0833 79.4141 50.1094C79.5182 50.2396 79.6354 50.3698 79.7656 50.5C79.8958 50.6042 80.0651 50.6562 80.2734 50.6562C80.3776 50.7865 80.4688 50.9297 80.5469 51.0859C80.651 51.2161 80.7422 51.3464 80.8203 51.4766C80.8203 51.6849 80.8203 51.8802 80.8203 52.0625C80.8464 52.2188 80.8464 52.388 80.8203 52.5703C80.7943 52.6745 80.7682 52.7786 80.7422 52.8828C80.7161 52.9609 80.7031 53.0521 80.7031 53.1562C80.7292 53.2604 80.7552 53.3646 80.7812 53.4688C80.8073 53.5469 80.8073 53.625 80.7812 53.7031C80.651 54.1198 80.5469 54.4323 80.4688 54.6406C80.4167 54.8229 80.3646 55.0182 80.3125 55.2266C80.3385 55.487 80.2734 55.6953 80.1172 55.8516C79.9609 55.9818 79.8307 56.125 79.7266 56.2812C79.5443 56.3594 79.401 56.4375 79.2969 56.5156C79.1927 56.5938 79.0885 56.6849 78.9844 56.7891C78.8021 57.0755 78.6068 57.3359 78.3984 57.5703C78.1901 57.8047 78.0208 58.0781 77.8906 58.3906C77.7604 58.651 77.5911 58.8594 77.3828 59.0156C77.2005 59.1458 77.0182 59.3021 76.8359 59.4844C76.7578 59.6927 76.6276 59.849 76.4453 59.9531C76.263 60.0573 76.0677 60.1745 75.8594 60.3047C75.7031 60.3307 75.5859 60.3828 75.5078 60.4609C75.4297 60.513 75.3255 60.5521 75.1953 60.5781C74.987 60.8125 74.7396 61.0078 74.4531 61.1641C74.1927 61.2943 73.9583 61.4635 73.75 61.6719C73.6198 61.8802 73.4766 62.0495 73.3203 62.1797C73.1641 62.3099 73.0599 62.4792 73.0078 62.6875C72.7734 63.0521 72.5651 63.3255 72.3828 63.5078C72.2266 63.6901 72.1094 63.9245 72.0312 64.2109C71.6927 64.6016 71.4453 64.9661 71.2891 65.3047C71.1589 65.4349 71.0417 65.5651 70.9375 65.6953C70.8333 65.8255 70.7161 65.9557 70.5859 66.0859C70.4818 66.1641 70.3776 66.2422 70.2734 66.3203C70.1693 66.3984 70.1042 66.5156 70.0781 66.6719C70.1302 66.75 70.1953 66.776 70.2734 66.75C70.3776 66.724 70.4688 66.6849 70.5469 66.6328C70.7031 66.6589 70.8464 66.6328 70.9766 66.5547C71.1068 66.4505 71.25 66.4115 71.4062 66.4375C71.4583 66.3854 71.5234 66.3333 71.6016 66.2812C71.6797 66.2292 71.7448 66.1771 71.7969 66.125C72.1354 65.9427 72.4089 65.8516 72.6172 65.8516C72.8255 65.8516 73.0339 65.8385 73.2422 65.8125C73.3984 65.7865 73.5026 65.7604 73.5547 65.7344C73.6068 65.6823 73.6589 65.6823 73.7109 65.7344C73.9714 65.6042 74.2448 65.5911 74.5312 65.6953C74.8177 65.7734 75.1042 65.7865 75.3906 65.7344C75.599 65.7865 75.7552 65.7995 75.8594 65.7734C75.9896 65.7214 76.1068 65.6953 76.2109 65.6953C76.4974 65.6693 76.7057 65.6302 76.8359 65.5781C76.9922 65.5 77.1615 65.487 77.3438 65.5391ZM80.1172 70.9688C80.1172 71.125 80.0651 71.2682 79.9609 71.3984C79.8568 71.5026 79.7266 71.5807 79.5703 71.6328C79.4141 71.6589 79.2578 71.6458 79.1016 71.5938C78.9714 71.5417 78.8932 71.4245 78.8672 71.2422C78.8411 71.112 78.8542 71.0208 78.9062 70.9688C78.9583 70.9167 79.0104 70.8516 79.0625 70.7734C79.2448 70.6432 79.388 70.5651 79.4922 70.5391C79.5964 70.487 79.6745 70.4609 79.7266 70.4609C79.7786 70.513 79.8438 70.6042 79.9219 70.7344C80 70.8385 80.0651 70.9167 80.1172 70.9688ZM99.8828 70.6172C99.8307 70.7995 99.7135 70.9167 99.5312 70.9688C99.375 70.9948 99.2578 71.0729 99.1797 71.2031C98.9974 71.3073 98.8151 71.3594 98.6328 71.3594C98.4505 71.3594 98.2552 71.3724 98.0469 71.3984C97.8125 71.3464 97.6693 71.2812 97.6172 71.2031C97.3828 71.2292 97.1875 71.1771 97.0312 71.0469C96.901 70.8906 96.7448 70.7734 96.5625 70.6953C96.5104 70.6172 96.4583 70.526 96.4062 70.4219C96.3542 70.3177 96.263 70.2786 96.1328 70.3047C96.1589 70.1745 96.1198 70.0703 96.0156 69.9922C95.9115 69.9141 95.8333 69.8229 95.7812 69.7188C95.651 69.6927 95.5469 69.6406 95.4688 69.5625C95.3906 69.4583 95.2865 69.4062 95.1562 69.4062C95 69.4062 94.8698 69.4844 94.7656 69.6406C94.6615 69.7969 94.5312 69.901 94.375 69.9531C94.3229 70.0052 94.2578 70.0573 94.1797 70.1094C94.1276 70.1615 94.0885 70.2266 94.0625 70.3047C93.9323 70.3047 93.8151 70.3438 93.7109 70.4219C93.6068 70.474 93.5026 70.5391 93.3984 70.6172C92.9557 70.5391 92.5651 70.5911 92.2266 70.7734C91.9141 70.9297 91.5495 70.9948 91.1328 70.9688C90.8203 71.0208 90.599 71.0599 90.4688 71.0859C90.3646 71.112 90.2474 71.125 90.1172 71.125C89.8307 71.151 89.5964 71.112 89.4141 71.0078C89.2318 71.0599 89.0625 71.0599 88.9062 71.0078C88.75 70.9297 88.5807 70.9167 88.3984 70.9688C88.2682 70.8906 88.151 70.8906 88.0469 70.9688C87.9427 71.0208 87.8125 71.0339 87.6562 71.0078C87.3438 70.8516 87.1354 70.7734 87.0312 70.7734C86.9531 70.7734 86.862 70.7474 86.7578 70.6953C86.7057 70.6432 86.6406 70.5781 86.5625 70.5C86.4844 70.4219 86.3672 70.3828 86.2109 70.3828C85.9245 70.2005 85.7552 70.0443 85.7031 69.9141C85.6771 69.7839 85.638 69.6667 85.5859 69.5625C85.4557 69.3281 85.3906 69.1719 85.3906 69.0938C85.4167 68.9896 85.4167 68.8854 85.3906 68.7812C85.2865 68.651 85.1693 68.5339 85.0391 68.4297C84.9349 68.3255 84.8438 68.2083 84.7656 68.0781C84.7135 67.8958 84.6745 67.7526 84.6484 67.6484C84.6484 67.5443 84.6354 67.4271 84.6094 67.2969C84.5573 67.0625 84.5052 66.8021 84.4531 66.5156C84.4271 66.2031 84.4141 65.9297 84.4141 65.6953C84.4401 65.4609 84.4401 65.3047 84.4141 65.2266C84.388 65.1484 84.401 65.0833 84.4531 65.0312C84.4531 64.4583 84.5443 63.9505 84.7266 63.5078C84.7526 63.3255 84.7656 63.1432 84.7656 62.9609C84.7917 62.7786 84.8698 62.6484 85 62.5703C85.0781 62.2318 85.1693 61.9974 85.2734 61.8672C85.3776 61.7109 85.4688 61.5286 85.5469 61.3203C85.7292 61.138 85.8203 61.0469 85.8203 61.0469C85.8464 61.0208 85.8594 60.9948 85.8594 60.9688C85.9896 60.8906 86.0677 60.8255 86.0938 60.7734C86.1458 60.6953 86.2109 60.6693 86.2891 60.6953C86.4974 60.4089 86.7188 60.1875 86.9531 60.0312C87.2135 59.849 87.487 59.6797 87.7734 59.5234C88.3464 59.2891 88.8802 59.1328 89.375 59.0547C89.8698 58.9505 90.3125 58.9245 90.7031 58.9766C90.8073 58.8724 91.0026 58.8203 91.2891 58.8203C91.5755 58.7943 91.7969 58.8333 91.9531 58.9375C92.0573 59.0417 92.1354 59.0938 92.1875 59.0938C92.2656 59.0677 92.3307 59.0677 92.3828 59.0938C92.4609 59.1198 92.5391 59.1719 92.6172 59.25C92.7214 59.3021 92.8385 59.3411 92.9688 59.3672C93.2812 59.4193 93.4505 59.4583 93.4766 59.4844C93.5026 59.5104 93.5417 59.5365 93.5938 59.5625C93.8542 59.6406 94.1276 59.6667 94.4141 59.6406C94.7005 59.6146 94.9089 59.4974 95.0391 59.2891C95.0911 59.237 95.1432 59.1328 95.1953 58.9766C95.2474 58.8203 95.2865 58.7031 95.3125 58.625C95.3385 58.5469 95.3385 58.4557 95.3125 58.3516C95.2865 58.2214 95.2604 58.1172 95.2344 58.0391C95.1823 57.6745 95.1562 57.2578 95.1562 56.7891C95.1562 56.2943 95.1432 55.8776 95.1172 55.5391C95.0651 54.9661 94.974 54.3802 94.8438 53.7812C94.7917 53.599 94.7396 53.4297 94.6875 53.2734C94.6354 53.1172 94.5443 52.987 94.4141 52.8828C94.2839 52.4401 94.1146 52.0625 93.9062 51.75C93.6979 51.4375 93.4505 51.1641 93.1641 50.9297C92.9557 50.9297 92.7995 50.8906 92.6953 50.8125C92.6172 50.7083 92.5 50.6432 92.3438 50.6172C91.9792 50.513 91.6667 50.5 91.4062 50.5781C91.1719 50.6302 90.9505 50.6432 90.7422 50.6172C90.612 50.5911 90.4948 50.5911 90.3906 50.6172C90.3125 50.6432 90.2083 50.6693 90.0781 50.6953C89.8438 50.6432 89.6484 50.6562 89.4922 50.7344C89.362 50.7865 89.2318 50.8385 89.1016 50.8906C88.8932 50.9948 88.737 51.0859 88.6328 51.1641C88.4505 51.2422 88.2812 51.3203 88.125 51.3984C87.9688 51.4505 87.8255 51.5417 87.6953 51.6719C87.6172 51.75 87.513 51.8281 87.3828 51.9062C87.2786 51.9844 87.1745 52.0885 87.0703 52.2188C86.9922 52.2969 86.901 52.401 86.7969 52.5312C86.7188 52.6615 86.6406 52.7917 86.5625 52.9219C86.3542 53.2865 86.25 53.5078 86.25 53.5859C86.25 53.6641 86.276 53.8073 86.3281 54.0156C86.3802 54.0677 86.4193 54.1328 86.4453 54.2109C86.4974 54.263 86.5365 54.3281 86.5625 54.4062C86.7188 54.7188 86.8229 54.888 86.875 54.9141C86.9271 54.9141 86.9661 54.9401 86.9922 54.9922C87.0964 54.9401 87.1745 54.9401 87.2266 54.9922C87.3047 55.0182 87.3958 55.0312 87.5 55.0312C87.6302 55.0052 87.7604 54.9661 87.8906 54.9141C88.0469 54.8359 88.2031 54.7969 88.3594 54.7969C88.3854 54.5885 88.3854 54.3932 88.3594 54.2109C88.3333 54.0026 88.3464 53.8203 88.3984 53.6641C88.5807 53.2995 88.776 53.0391 88.9844 52.8828C89.2188 52.6224 89.5182 52.4531 89.8828 52.375C89.987 52.3229 90.0781 52.2708 90.1562 52.2188C90.2604 52.1406 90.3776 52.1016 90.5078 52.1016C90.7682 52.2578 90.9375 52.3359 91.0156 52.3359C91.1198 52.3099 91.2109 52.3229 91.2891 52.375C91.6016 52.401 91.849 52.4661 92.0312 52.5703C92.2396 52.6484 92.4089 52.8177 92.5391 53.0781C92.5911 53.2083 92.6172 53.3516 92.6172 53.5078C92.6432 53.638 92.7214 53.7552 92.8516 53.8594C92.9036 53.9635 92.9167 54.0677 92.8906 54.1719C92.8646 54.25 92.8776 54.3542 92.9297 54.4844C92.9297 54.6146 92.9557 54.7448 93.0078 54.875C93.0599 54.9792 93.0599 55.0964 93.0078 55.2266C92.9297 55.3568 92.8385 55.513 92.7344 55.6953C92.6562 55.8516 92.5781 55.9557 92.5 56.0078C92.474 56.1641 92.4089 56.2943 92.3047 56.3984C92.2005 56.5026 92.0964 56.6068 91.9922 56.7109C91.9401 56.7891 91.888 56.8672 91.8359 56.9453C91.7839 57.0234 91.6927 57.0885 91.5625 57.1406C91.1979 57.2969 90.9635 57.388 90.8594 57.4141C90.7552 57.4401 90.6641 57.4792 90.5859 57.5312C90.2995 57.7135 90.0911 57.8047 89.9609 57.8047C89.8568 57.8047 89.7396 57.8307 89.6094 57.8828C89.2969 57.987 89.1016 58.026 89.0234 58C88.9453 57.974 88.8802 57.974 88.8281 58C88.6979 58 88.5547 58.026 88.3984 58.0781C88.2422 58.1302 88.0859 58.1432 87.9297 58.1172C87.6693 58.0651 87.526 58.0521 87.5 58.0781C87.474 58.0781 87.4479 58.0781 87.4219 58.0781C87.1615 58.026 86.9661 57.9089 86.8359 57.7266C86.7057 57.5182 86.4714 57.4141 86.1328 57.4141C85.8464 57.2318 85.612 57.1146 85.4297 57.0625C85.2474 56.9844 85.1172 56.8542 85.0391 56.6719C84.7005 56.4375 84.4792 56.2682 84.375 56.1641C84.2969 56.0599 84.2057 55.9688 84.1016 55.8906C83.9974 55.6302 83.8802 55.3828 83.75 55.1484C83.6198 54.9141 83.5417 54.6536 83.5156 54.3672C83.4896 54.1849 83.4766 53.9766 83.4766 53.7422C83.4766 53.4818 83.4896 53.2474 83.5156 53.0391C83.5677 52.7005 83.6328 52.4661 83.7109 52.3359C83.8151 52.2057 83.8932 52.0495 83.9453 51.8672C83.9974 51.7891 84.0234 51.7109 84.0234 51.6328C84.0234 51.5286 84.0495 51.4375 84.1016 51.3594C84.2318 51.125 84.362 50.9688 84.4922 50.8906C84.7266 50.4479 84.9349 50.1615 85.1172 50.0312C85.2995 49.901 85.4948 49.7839 85.7031 49.6797C86.1198 49.4974 86.4453 49.3542 86.6797 49.25C86.9401 49.1198 87.2266 49.0417 87.5391 49.0156C87.7995 48.9896 88.0469 48.9635 88.2812 48.9375C88.5156 48.8854 88.737 48.7943 88.9453 48.6641C89.3359 48.612 89.6875 48.5859 90 48.5859C90.3385 48.5859 90.6641 48.5599 90.9766 48.5078C91.0807 48.5339 91.1849 48.5339 91.2891 48.5078C91.3932 48.4557 91.4974 48.4297 91.6016 48.4297C91.888 48.4818 92.1224 48.5078 92.3047 48.5078C92.513 48.4818 92.7344 48.4818 92.9688 48.5078C93.0469 48.5339 93.125 48.5599 93.2031 48.5859C93.3073 48.612 93.3984 48.638 93.4766 48.6641C93.7109 48.7161 93.9453 48.7812 94.1797 48.8594C94.4401 48.9115 94.6615 49.0026 94.8438 49.1328C95.651 49.2891 96.2109 49.6927 96.5234 50.3438C96.5755 50.5781 96.6276 50.7474 96.6797 50.8516C96.7318 50.9297 96.7708 51.0339 96.7969 51.1641C96.875 51.2943 96.9531 51.4245 97.0312 51.5547C97.1354 51.6589 97.2396 51.776 97.3438 51.9062C97.5 52.1927 97.6172 52.4531 97.6953 52.6875C97.7734 52.9219 97.8776 53.1562 98.0078 53.3906C98.0599 53.4948 98.099 53.599 98.125 53.7031C98.1771 53.7812 98.2292 53.8854 98.2812 54.0156C98.3854 54.25 98.4245 54.3802 98.3984 54.4062C98.3984 54.4323 98.3984 54.4583 98.3984 54.4844C98.4245 54.6146 98.4635 54.7448 98.5156 54.875C98.5938 54.9792 98.6458 55.0964 98.6719 55.2266C98.6198 55.4089 98.6198 55.5911 98.6719 55.7734C98.75 55.9557 98.763 56.112 98.7109 56.2422C98.8151 56.4505 98.8672 56.6849 98.8672 56.9453C98.8672 57.1797 98.8802 57.4401 98.9062 57.7266C98.9583 57.8047 98.9714 57.8828 98.9453 57.9609C98.9193 58.0391 98.9062 58.1172 98.9062 58.1953C98.9062 58.3255 98.9193 58.4557 98.9453 58.5859C98.9974 58.7161 99.0104 58.8464 98.9844 58.9766C98.9583 59.1589 98.9583 59.2891 98.9844 59.3672C99.0104 59.4193 99.0234 59.4844 99.0234 59.5625C98.9974 59.6667 98.9844 59.7839 98.9844 59.9141C99.0104 60.0182 99.0104 60.1354 98.9844 60.2656C98.9583 60.4219 98.9323 60.5781 98.9062 60.7344C98.8802 60.8646 98.8542 60.9948 98.8281 61.125C98.8021 61.2292 98.776 61.3203 98.75 61.3984C98.724 61.4766 98.724 61.5677 98.75 61.6719C98.8021 62.0104 98.776 62.2969 98.6719 62.5312C98.6198 62.8698 98.5677 63.2214 98.5156 63.5859C98.4896 63.9245 98.4505 64.263 98.3984 64.6016C98.4505 64.8359 98.4635 65.0573 98.4375 65.2656C98.4375 65.4479 98.4245 65.6823 98.3984 65.9688C98.4245 66.2812 98.4505 66.5677 98.4766 66.8281C98.5286 67.0885 98.6198 67.3099 98.75 67.4922C99.1667 67.5703 99.4531 67.6354 99.6094 67.6875C99.7656 67.7396 99.8698 67.8307 99.9219 67.9609C100.026 68.1693 100.13 68.3516 100.234 68.5078C100.339 68.638 100.417 68.7943 100.469 68.9766C100.521 69.1068 100.534 69.1979 100.508 69.25C100.482 69.3021 100.456 69.3932 100.43 69.5234C100.378 69.6276 100.365 69.7188 100.391 69.7969C100.417 69.849 100.404 69.9401 100.352 70.0703C100.247 70.1484 100.182 70.2396 100.156 70.3438C100.156 70.4219 100.13 70.487 100.078 70.5391L99.8828 70.6172ZM88.4375 63.2344C88.3073 63.651 88.2161 63.9115 88.1641 64.0156C88.1901 64.3281 88.1901 64.5625 88.1641 64.7188C88.138 64.875 88.112 65.0182 88.0859 65.1484C87.9818 65.487 87.9688 65.7734 88.0469 66.0078C88.0729 66.138 88.112 66.2943 88.1641 66.4766C88.2161 66.6589 88.2682 66.776 88.3203 66.8281C88.3724 67.1927 88.5156 67.4531 88.75 67.6094C88.9844 67.7396 89.2057 67.8698 89.4141 68C89.9349 68.0781 90.3125 68.0521 90.5469 67.9219C90.8073 67.7656 91.0807 67.7005 91.3672 67.7266C91.5495 67.5443 91.7839 67.4531 92.0703 67.4531C92.3568 67.2448 92.513 67.1406 92.5391 67.1406C92.5651 67.1146 92.6042 67.0885 92.6562 67.0625C92.8646 66.9583 93.0078 66.8932 93.0859 66.8672C93.1901 66.8151 93.3073 66.763 93.4375 66.7109C93.5677 66.6589 93.7109 66.5677 93.8672 66.4375C94.0495 66.3073 94.1667 66.1901 94.2188 66.0859C94.401 65.7995 94.4922 65.4479 94.4922 65.0312C94.4922 64.901 94.5052 64.7969 94.5312 64.7188C94.5833 64.6406 94.6094 64.5365 94.6094 64.4062C94.5052 64.1979 94.4531 64.0417 94.4531 63.9375C94.4792 63.7292 94.4792 63.599 94.4531 63.5469C94.4271 63.4948 94.401 63.4427 94.375 63.3906C94.2969 63.1562 94.2318 62.987 94.1797 62.8828C94.1276 62.7786 94.1016 62.6484 94.1016 62.4922C93.8932 62.1797 93.724 62.0104 93.5938 61.9844C93.4896 61.9323 93.3724 61.8802 93.2422 61.8281C93.0078 61.9062 92.7734 61.8932 92.5391 61.7891C92.3307 61.6849 92.1354 61.6849 91.9531 61.7891C91.4323 61.7891 90.9635 61.9062 90.5469 62.1406C90.1302 62.349 89.7005 62.5182 89.2578 62.6484C89.1276 62.6745 89.0104 62.7005 88.9062 62.7266C88.8281 62.7526 88.737 62.7917 88.6328 62.8438C88.6328 62.9479 88.6068 63.026 88.5547 63.0781C88.5026 63.1302 88.4635 63.1823 88.4375 63.2344ZM99.6094 49.9141C99.8698 49.9922 100.052 50.0833 100.156 50.1875C100.286 50.2656 100.404 50.3958 100.508 50.5781C100.612 50.7604 100.664 50.9557 100.664 51.1641C100.69 51.3724 100.638 51.5417 100.508 51.6719C100.378 51.724 100.299 51.776 100.273 51.8281C100.247 51.8542 100.208 51.8932 100.156 51.9453C99.9479 52.1536 99.7266 52.2057 99.4922 52.1016C99.2578 51.9714 99.0234 51.8672 98.7891 51.7891C98.6589 51.6328 98.5547 51.4505 98.4766 51.2422C98.3984 51.0339 98.3594 50.8125 98.3594 50.5781C98.4635 50.4479 98.5547 50.3307 98.6328 50.2266C98.737 50.0964 98.8932 50.0443 99.1016 50.0703C99.1797 50.0182 99.349 49.9661 99.6094 49.9141ZM85 58.3516C85.026 58.5339 85.0781 58.6901 85.1562 58.8203C85.2604 58.9505 85.2865 59.1198 85.2344 59.3281C84.9479 59.6406 84.6875 59.7969 84.4531 59.7969C84.0625 59.6146 83.7891 59.4193 83.6328 59.2109C83.5026 58.9766 83.5026 58.7031 83.6328 58.3906C83.7109 58.3125 83.8281 58.2214 83.9844 58.1172C84.1927 58.0391 84.375 58.0521 84.5312 58.1562C84.7135 58.2344 84.8698 58.2995 85 58.3516ZM100.195 63.2344C100.299 63.2083 100.365 63.1823 100.391 63.1562C100.443 63.1042 100.521 63.1042 100.625 63.1562C100.755 63.2083 100.833 63.3255 100.859 63.5078C100.911 63.6901 100.911 63.8594 100.859 64.0156C100.781 64.0677 100.703 64.1068 100.625 64.1328C100.573 64.1589 100.508 64.1719 100.43 64.1719C100.247 64.1198 100.143 63.9896 100.117 63.7812C100.091 63.5729 100.117 63.3906 100.195 63.2344ZM99.9219 66.8281C99.7135 66.6458 99.6224 66.4505 99.6484 66.2422C99.7005 66.0339 99.7266 65.8255 99.7266 65.6172C99.8307 65.4349 99.9219 65.3438 100 65.3438C100.104 65.3177 100.195 65.2786 100.273 65.2266C100.508 65.2266 100.716 65.2526 100.898 65.3047C101.081 65.3307 101.185 65.4349 101.211 65.6172C101.341 65.8255 101.367 65.9948 101.289 66.125C101.237 66.2292 101.198 66.3464 101.172 66.4766C101.042 66.6068 100.846 66.724 100.586 66.8281C100.352 66.9323 100.156 66.9844 100 66.9844L99.9219 66.8281ZM84.0234 70.2656C84.2839 70.2135 84.5052 70.2396 84.6875 70.3438C84.8958 70.4479 84.974 70.6302 84.9219 70.8906C84.9219 71.099 84.8568 71.2292 84.7266 71.2812C84.6224 71.3333 84.5052 71.4115 84.375 71.5156C84.0885 71.4635 83.9062 71.2943 83.8281 71.0078C83.75 70.6953 83.8151 70.4479 84.0234 70.2656ZM111.797 48.1172C111.927 48.0651 112.018 48.0651 112.07 48.1172C112.122 48.1693 112.201 48.2083 112.305 48.2344C112.487 48.5208 112.552 48.7422 112.5 48.8984C112.448 49.0547 112.37 49.1979 112.266 49.3281C112.135 49.3802 112.031 49.4453 111.953 49.5234C111.901 49.6016 111.836 49.6797 111.758 49.7578C111.471 49.9401 111.159 49.9661 110.82 49.8359C110.508 49.5755 110.456 49.276 110.664 48.9375C111.055 48.4688 111.432 48.1953 111.797 48.1172ZM116.836 49.6797C116.784 49.6016 116.745 49.4714 116.719 49.2891C116.719 49.0807 116.758 48.9115 116.836 48.7812C117.201 48.6771 117.422 48.6771 117.5 48.7812C117.604 48.8594 117.721 48.9375 117.852 49.0156C117.852 49.3021 117.734 49.4974 117.5 49.6016C117.292 49.7057 117.07 49.7318 116.836 49.6797ZM118.75 49.4844C119.062 49.6667 119.245 49.8099 119.297 49.9141C119.349 49.9922 119.388 50.0964 119.414 50.2266C119.492 50.5911 119.479 50.8646 119.375 51.0469C119.245 51.099 119.102 51.1771 118.945 51.2812C118.789 51.3854 118.62 51.4245 118.438 51.3984C118.203 51.4505 118.047 51.4115 117.969 51.2812C117.891 51.151 117.839 51.0208 117.812 50.8906C117.786 50.5521 117.826 50.3568 117.93 50.3047C118.06 50.2526 118.099 50.1615 118.047 50.0312C118.151 49.9271 118.242 49.8229 118.32 49.7188C118.398 49.5885 118.542 49.5104 118.75 49.4844ZM108.555 63.4297C108.529 63.1432 108.542 62.9609 108.594 62.8828C108.646 62.7786 108.659 62.6615 108.633 62.5312C108.997 62.349 109.258 62.2839 109.414 62.3359C109.57 62.388 109.701 62.4792 109.805 62.6094C109.909 62.7396 109.961 62.8958 109.961 63.0781C109.987 63.2344 109.948 63.3906 109.844 63.5469C109.792 63.625 109.727 63.6901 109.648 63.7422C109.596 63.7682 109.544 63.8333 109.492 63.9375C109.102 64.0156 108.867 63.9896 108.789 63.8594C108.737 63.7292 108.698 63.599 108.672 63.4688L108.555 63.4297ZM112.695 64.5625C112.721 64.9531 112.5 65.1484 112.031 65.1484C111.849 64.9401 111.758 64.8229 111.758 64.7969C111.784 64.7448 111.797 64.6797 111.797 64.6016C112.031 64.4453 112.214 64.3932 112.344 64.4453C112.474 64.4714 112.591 64.5104 112.695 64.5625ZM108.789 52.6484C109.206 52.5182 109.466 52.388 109.57 52.2578C109.701 52.1016 109.857 52.0234 110.039 52.0234C110.273 51.8672 110.391 51.8021 110.391 51.8281C110.417 51.8542 110.443 51.8542 110.469 51.8281C110.703 51.6719 110.872 51.5938 110.977 51.5938C111.107 51.5677 111.224 51.5286 111.328 51.4766C111.615 51.3724 111.771 51.3333 111.797 51.3594C111.849 51.3594 111.901 51.3464 111.953 51.3203C112.318 51.138 112.63 51.0729 112.891 51.125C113.177 51.151 113.451 51.125 113.711 51.0469C113.893 51.099 114.089 51.125 114.297 51.125C114.531 51.125 114.753 51.138 114.961 51.1641C115.195 51.1641 115.417 51.1901 115.625 51.2422C115.859 51.2682 116.055 51.3464 116.211 51.4766C116.445 51.4766 116.628 51.5677 116.758 51.75C117.018 51.9062 117.148 51.9974 117.148 52.0234C117.435 52.2318 117.656 52.4922 117.812 52.8047C117.995 53.1172 118.19 53.4036 118.398 53.6641C118.581 53.9505 118.698 54.2109 118.75 54.4453C118.802 54.6797 118.893 54.875 119.023 55.0312C118.971 55.526 118.893 55.9948 118.789 56.4375C118.711 56.8802 118.672 57.349 118.672 57.8438C118.672 58.0521 118.685 58.2865 118.711 58.5469C118.737 58.7812 118.737 59.0156 118.711 59.25C118.685 59.3281 118.659 59.4062 118.633 59.4844C118.607 59.5365 118.581 59.6016 118.555 59.6797C118.451 59.9661 118.346 60.2656 118.242 60.5781C118.138 60.8646 118.021 61.151 117.891 61.4375C117.63 61.6458 117.448 61.8151 117.344 61.9453C117.266 62.0495 117.161 62.1406 117.031 62.2188C116.875 62.5052 116.641 62.7396 116.328 62.9219C116.042 63.0781 115.716 63.1823 115.352 63.2344C115.221 63.3385 115.091 63.3776 114.961 63.3516C114.857 63.3255 114.753 63.3776 114.648 63.5078C114.466 63.4818 114.297 63.5078 114.141 63.5859C114.01 63.6641 113.867 63.638 113.711 63.5078C113.503 63.4818 113.307 63.4297 113.125 63.3516C112.969 63.2474 112.826 63.2083 112.695 63.2344C112.617 63.1823 112.539 63.1432 112.461 63.1172C112.409 63.0651 112.318 63.0391 112.188 63.0391C111.953 62.8828 111.758 62.7396 111.602 62.6094C111.471 62.4531 111.341 62.2839 111.211 62.1016C111.029 61.6589 110.872 61.3464 110.742 61.1641C110.612 60.9818 110.534 60.7865 110.508 60.5781C110.508 60.4219 110.495 60.2786 110.469 60.1484C110.469 60.0182 110.482 59.888 110.508 59.7578C110.456 59.5755 110.443 59.3932 110.469 59.2109C110.495 59.0026 110.547 58.8073 110.625 58.625C110.703 58.4167 110.794 58.2214 110.898 58.0391C111.003 57.8568 111.081 57.6875 111.133 57.5312C111.107 57.2969 111.185 57.1276 111.367 57.0234C111.549 56.8932 111.732 56.776 111.914 56.6719C112.044 56.6198 112.214 56.5547 112.422 56.4766C112.656 56.3984 112.865 56.4245 113.047 56.5547C113.203 56.6328 113.346 56.6979 113.477 56.75C113.633 56.9844 113.685 57.2578 113.633 57.5703C113.607 57.8828 113.568 58.1432 113.516 58.3516C113.568 58.638 113.594 58.9375 113.594 59.25C113.594 59.5625 113.724 59.7708 113.984 59.875C114.062 59.901 114.141 59.9141 114.219 59.9141C114.297 59.888 114.362 59.9141 114.414 59.9922C114.544 59.9141 114.661 59.862 114.766 59.8359C114.87 59.8099 114.961 59.7708 115.039 59.7188C115.195 59.5885 115.286 59.4323 115.312 59.25C115.339 59.0677 115.417 58.8854 115.547 58.7031C115.625 58.3906 115.716 58.1302 115.82 57.9219C115.951 57.7135 116.016 57.4792 116.016 57.2188C116.016 57.0885 115.99 56.9714 115.938 56.8672C115.911 56.737 115.898 56.6068 115.898 56.4766C115.768 56.2943 115.677 56.112 115.625 55.9297C115.573 55.7474 115.521 55.5651 115.469 55.3828C115.234 55.2005 114.935 55.0443 114.57 54.9141C114.206 54.7839 113.88 54.6146 113.594 54.4062C113.307 54.4323 112.982 54.4844 112.617 54.5625C112.279 54.6146 111.966 54.7057 111.68 54.8359C111.549 54.9661 111.393 55.0703 111.211 55.1484C111.029 55.2266 110.833 55.3047 110.625 55.3828C110.495 55.513 110.378 55.6432 110.273 55.7734C110.195 55.8776 110.078 55.9557 109.922 56.0078C109.635 56.3203 109.414 56.5547 109.258 56.7109C109.102 56.8672 108.958 57.0495 108.828 57.2578C108.776 57.4141 108.724 57.5703 108.672 57.7266C108.646 57.8568 108.607 57.987 108.555 58.1172C108.529 58.2995 108.516 58.4688 108.516 58.625C108.516 58.7812 108.49 58.9635 108.438 59.1719C108.568 59.4062 108.568 59.6406 108.438 59.875C108.333 60.3698 108.229 60.7474 108.125 61.0078C108.047 61.2682 107.982 61.5286 107.93 61.7891C107.878 62.1016 107.839 62.2839 107.812 62.3359C107.786 62.388 107.773 62.4401 107.773 62.4922C107.747 62.7005 107.76 62.9089 107.812 63.1172C107.865 63.3255 107.904 63.5339 107.93 63.7422V64.3672C108.086 64.6276 108.19 64.9401 108.242 65.3047C108.294 65.6432 108.385 65.9688 108.516 66.2812C108.516 66.6198 108.555 66.8672 108.633 67.0234C108.711 67.1536 108.737 67.362 108.711 67.6484C108.763 67.8307 108.789 68.0391 108.789 68.2734C108.815 68.4818 108.854 68.7031 108.906 68.9375C109.089 69.4062 109.062 69.7708 108.828 70.0312C108.62 70.2917 108.424 70.5651 108.242 70.8516C108.112 70.9036 107.982 70.9557 107.852 71.0078C107.747 71.0339 107.643 71.099 107.539 71.2031C107.331 71.1771 107.174 71.2161 107.07 71.3203C106.888 71.2943 106.745 71.2943 106.641 71.3203C106.562 71.3464 106.458 71.3724 106.328 71.3984C106.25 71.3724 106.172 71.3464 106.094 71.3203C106.016 71.2682 105.924 71.2422 105.82 71.2422C105.56 71.2422 105.365 71.2031 105.234 71.125C105.13 71.0469 105.039 70.9818 104.961 70.9297C104.753 70.9297 104.583 70.8646 104.453 70.7344C104.271 70.5781 104.089 70.4479 103.906 70.3438C103.75 70.2135 103.633 70.0573 103.555 69.875C103.529 69.6927 103.49 69.5365 103.438 69.4062C103.411 69.276 103.385 69.1458 103.359 69.0156C103.385 68.7031 103.411 68.4036 103.438 68.1172C103.49 67.8307 103.555 67.6224 103.633 67.4922C103.763 67.3359 103.828 67.2318 103.828 67.1797C103.854 67.1016 103.893 67.0495 103.945 67.0234C104.049 66.737 104.154 66.4375 104.258 66.125C104.362 65.7865 104.453 65.474 104.531 65.1875C104.557 65.0833 104.583 64.9922 104.609 64.9141C104.661 64.8359 104.688 64.7578 104.688 64.6797C104.688 64.6016 104.674 64.5234 104.648 64.4453C104.622 64.3672 104.622 64.3021 104.648 64.25C104.674 64.1198 104.701 64.0026 104.727 63.8984C104.779 63.7682 104.805 63.638 104.805 63.5078C104.805 63.2734 104.818 63.1042 104.844 63C104.844 62.8958 104.831 62.8047 104.805 62.7266C104.779 62.6224 104.753 62.5052 104.727 62.375C104.674 62.1927 104.635 62.0365 104.609 61.9062C104.609 61.776 104.583 61.6328 104.531 61.4766C104.531 61.138 104.492 60.8516 104.414 60.6172C104.362 60.3568 104.362 60.1484 104.414 59.9922C104.258 59.5755 104.18 59.224 104.18 58.9375C104.206 58.625 104.154 58.3906 104.023 58.2344C103.971 57.9479 103.932 57.6875 103.906 57.4531C103.906 57.2188 103.932 56.9844 103.984 56.75C103.932 56.5938 103.906 56.4245 103.906 56.2422C103.932 56.0599 103.919 55.8776 103.867 55.6953C103.815 55.2526 103.789 54.849 103.789 54.4844C103.789 54.1198 103.698 53.8203 103.516 53.5859C103.385 53.2214 103.242 52.9479 103.086 52.7656C102.93 52.5833 102.786 52.4531 102.656 52.375C102.63 52.2448 102.539 52.1146 102.383 51.9844C102.253 51.8281 102.174 51.6849 102.148 51.5547C102.122 51.2943 102.227 51.0469 102.461 50.8125C102.591 50.3958 102.708 50.0573 102.812 49.7969C102.943 49.5104 103.073 49.224 103.203 48.9375C103.49 48.8594 103.815 48.7943 104.18 48.7422C104.544 48.6901 104.909 48.6901 105.273 48.7422C105.638 48.6641 105.99 48.5859 106.328 48.5078C106.693 48.4036 107.018 48.3646 107.305 48.3906C107.513 48.3906 107.682 48.4818 107.812 48.6641C107.969 48.8203 108.151 48.9375 108.359 49.0156C108.49 49.224 108.581 49.4193 108.633 49.6016C108.711 49.7839 108.724 49.9661 108.672 50.1484C108.802 50.513 108.854 50.9167 108.828 51.3594C108.802 51.8021 108.789 52.2318 108.789 52.6484ZM127.422 44.7969C127.135 44.849 126.875 44.849 126.641 44.7969C126.406 44.7188 126.276 44.5495 126.25 44.2891C126.224 44.1328 126.276 43.9375 126.406 43.7031C126.536 43.4427 126.68 43.2865 126.836 43.2344C126.966 43.2604 127.07 43.2474 127.148 43.1953C127.227 43.1172 127.331 43.0911 127.461 43.1172C127.513 43.1693 127.578 43.2083 127.656 43.2344C127.734 43.2344 127.799 43.2734 127.852 43.3516C127.982 43.5078 128.021 43.7161 127.969 43.9766C127.917 44.237 127.826 44.4323 127.695 44.5625L127.422 44.7969ZM121.25 48.1172C121.224 48.0651 121.211 47.987 121.211 47.8828C121.237 47.7526 121.237 47.6224 121.211 47.4922C121.159 47.3359 121.107 47.1536 121.055 46.9453C121.055 46.763 121.094 46.6068 121.172 46.4766C121.25 46.3464 121.302 46.2031 121.328 46.0469C121.562 45.8646 121.771 45.6432 121.953 45.3828C122.135 45.1224 122.383 44.9271 122.695 44.7969C122.956 44.6667 123.151 44.5885 123.281 44.5625C123.411 44.5104 123.529 44.5104 123.633 44.5625C123.763 44.5104 123.88 44.4844 123.984 44.4844C124.089 44.4844 124.18 44.4974 124.258 44.5234C124.414 44.4193 124.544 44.4323 124.648 44.5625C124.779 44.6927 124.909 44.8099 125.039 44.9141C125.195 45.0703 125.352 45.2005 125.508 45.3047C125.69 45.4089 125.82 45.5781 125.898 45.8125C125.898 45.9948 125.964 46.151 126.094 46.2812C126.172 46.75 126.133 47.1797 125.977 47.5703C125.846 47.9609 125.56 48.1823 125.117 48.2344C124.831 48.3646 124.674 48.4427 124.648 48.4688C124.648 48.4948 124.635 48.5208 124.609 48.5469C124.323 48.651 124.076 48.7682 123.867 48.8984C123.685 49.0026 123.464 49.0417 123.203 49.0156C123.151 49.0677 123.086 49.1068 123.008 49.1328C122.956 49.1328 122.878 49.1458 122.773 49.1719C122.435 49.224 122.188 49.1719 122.031 49.0156C121.875 48.8333 121.693 48.7161 121.484 48.6641C121.328 48.5078 121.25 48.3255 121.25 48.1172ZM121.445 54.875C121.211 54.5885 121.068 54.3281 121.016 54.0938C120.99 53.8594 120.938 53.6771 120.859 53.5469C120.833 53.2865 120.859 53.0391 120.938 52.8047C121.016 52.5443 121.081 52.2839 121.133 52.0234C121.211 51.9714 121.289 51.9193 121.367 51.8672C121.471 51.8151 121.576 51.75 121.68 51.6719C121.81 51.4635 121.979 51.3073 122.188 51.2031C122.266 51.125 122.331 51.0469 122.383 50.9688C122.461 50.8906 122.539 50.8385 122.617 50.8125C122.695 50.7865 122.773 50.7865 122.852 50.8125C122.93 50.8125 123.008 50.8125 123.086 50.8125C123.372 50.7083 123.75 50.6953 124.219 50.7734C124.323 50.7214 124.44 50.7083 124.57 50.7344C124.727 50.7344 124.87 50.7734 125 50.8516C125.104 50.9036 125.182 50.9297 125.234 50.9297C125.312 50.9036 125.404 50.9036 125.508 50.9297C125.794 50.9818 126.016 51.112 126.172 51.3203C126.328 51.5026 126.51 51.6589 126.719 51.7891C126.797 51.9193 126.849 52.0625 126.875 52.2188C126.927 52.375 126.992 52.5182 127.07 52.6484C127.148 53.013 127.188 53.3776 127.188 53.7422C127.214 54.0807 127.188 54.4323 127.109 54.7969C127.109 55.1875 127.122 55.487 127.148 55.6953C127.201 55.9036 127.214 56.112 127.188 56.3203C127.083 56.5286 127.031 56.6849 127.031 56.7891C127.057 57.1536 127.057 57.388 127.031 57.4922C127.005 57.5964 127.018 57.7005 127.07 57.8047C127.122 57.9609 127.201 58.1042 127.305 58.2344C127.435 58.3385 127.526 58.4948 127.578 58.7031C127.604 58.8073 127.617 58.8984 127.617 58.9766C127.617 59.0286 127.643 59.0807 127.695 59.1328C127.669 59.5495 127.669 59.9922 127.695 60.4609C127.721 60.9036 127.682 61.3333 127.578 61.75C127.604 61.9583 127.591 62.1536 127.539 62.3359C127.513 62.5182 127.513 62.7005 127.539 62.8828C127.539 63.013 127.552 63.1172 127.578 63.1953C127.604 63.2734 127.63 63.3646 127.656 63.4688C127.708 63.6771 127.708 63.8854 127.656 64.0938C127.63 64.276 127.656 64.4583 127.734 64.6406C127.734 64.901 127.76 65.1484 127.812 65.3828C127.891 65.5911 127.93 65.7995 127.93 66.0078C127.93 66.1901 127.969 66.3464 128.047 66.4766C128.125 66.6068 128.177 66.763 128.203 66.9453C128.203 67.2578 128.216 67.4661 128.242 67.5703C128.268 67.6484 128.294 67.7526 128.32 67.8828C128.32 68.1953 128.268 68.4818 128.164 68.7422C128.06 69.0026 127.943 69.263 127.812 69.5234C127.63 69.6536 127.487 69.8099 127.383 69.9922C127.201 70.1484 127.005 70.2786 126.797 70.3828C126.615 70.487 126.419 70.6042 126.211 70.7344C125.898 70.6823 125.703 70.5391 125.625 70.3047C125.417 70.2526 125.247 70.2656 125.117 70.3438C124.987 70.4219 124.857 70.487 124.727 70.5391C124.596 70.4609 124.453 70.4479 124.297 70.5C124.141 70.5521 123.997 70.5911 123.867 70.6172C123.555 70.4609 123.333 70.2656 123.203 70.0312C123.047 69.6667 122.93 69.4453 122.852 69.3672C122.799 69.2891 122.747 69.1979 122.695 69.0938C122.643 68.8333 122.591 68.7031 122.539 68.7031C122.513 68.6771 122.487 68.638 122.461 68.5859C122.513 68.1432 122.565 67.8307 122.617 67.6484C122.695 67.4661 122.773 67.2839 122.852 67.1016C123.06 66.6589 123.164 66.3464 123.164 66.1641C123.372 65.4609 123.555 64.9141 123.711 64.5234C123.893 64.1328 123.971 63.6771 123.945 63.1562C124.076 62.8698 124.089 62.5964 123.984 62.3359C123.88 62.0495 123.867 61.763 123.945 61.4766C123.919 61.3724 123.893 61.2943 123.867 61.2422C123.841 61.1641 123.854 61.0729 123.906 60.9688C123.724 60.7344 123.672 60.4349 123.75 60.0703C123.75 59.888 123.724 59.7448 123.672 59.6406C123.646 59.5365 123.685 59.4453 123.789 59.3672C123.711 59.2891 123.698 59.2109 123.75 59.1328C123.828 59.0547 123.815 58.9896 123.711 58.9375C123.789 58.7812 123.802 58.625 123.75 58.4688C123.724 58.2865 123.724 58.0911 123.75 57.8828C123.646 57.5703 123.594 57.2969 123.594 57.0625C123.62 56.8021 123.62 56.5547 123.594 56.3203C123.568 56.2161 123.529 56.125 123.477 56.0469C123.451 55.9688 123.451 55.8776 123.477 55.7734C123.008 55.5651 122.656 55.4089 122.422 55.3047C122.214 55.2005 121.992 55.0964 121.758 54.9922L121.445 54.875ZM121.172 56.7109C121.328 56.6068 121.458 56.5417 121.562 56.5156C121.667 56.4896 121.784 56.5026 121.914 56.5547C122.201 56.6849 122.422 56.9453 122.578 57.3359C122.734 57.7005 122.695 58 122.461 58.2344C122.383 58.3125 122.253 58.3776 122.07 58.4297C121.914 58.4818 121.771 58.4557 121.641 58.3516C121.562 58.2995 121.484 58.2214 121.406 58.1172C121.354 58.013 121.289 57.8958 121.211 57.7656C121.159 57.6875 121.081 57.5573 120.977 57.375C120.898 57.1667 120.885 56.9974 120.938 56.8672L121.172 56.7109ZM128.32 71.3594C128.086 71.2031 127.995 70.9297 128.047 70.5391C128.099 70.4089 128.164 70.3177 128.242 70.2656C128.346 70.1875 128.464 70.1094 128.594 70.0312C128.88 69.901 129.141 69.862 129.375 69.9141C129.609 69.9661 129.74 70.0573 129.766 70.1875C129.766 70.2396 129.753 70.3177 129.727 70.4219C129.701 70.526 129.661 70.6042 129.609 70.6562C129.583 70.7083 129.505 70.8125 129.375 70.9688C129.245 71.125 129.154 71.2161 129.102 71.2422L128.594 71.4375L128.32 71.3594ZM147.969 70.6172C147.917 70.7995 147.799 70.9167 147.617 70.9688C147.461 70.9948 147.344 71.0729 147.266 71.2031C147.083 71.3073 146.901 71.3594 146.719 71.3594C146.536 71.3594 146.341 71.3724 146.133 71.3984C145.898 71.3464 145.755 71.2812 145.703 71.2031C145.469 71.2292 145.273 71.1771 145.117 71.0469C144.987 70.8906 144.831 70.7734 144.648 70.6953C144.596 70.6172 144.544 70.526 144.492 70.4219C144.44 70.3177 144.349 70.2786 144.219 70.3047C144.245 70.1745 144.206 70.0703 144.102 69.9922C143.997 69.9141 143.919 69.8229 143.867 69.7188C143.737 69.6927 143.633 69.6406 143.555 69.5625C143.477 69.4583 143.372 69.4062 143.242 69.4062C143.086 69.4062 142.956 69.4844 142.852 69.6406C142.747 69.7969 142.617 69.901 142.461 69.9531C142.409 70.0052 142.344 70.0573 142.266 70.1094C142.214 70.1615 142.174 70.2266 142.148 70.3047C142.018 70.3047 141.901 70.3438 141.797 70.4219C141.693 70.474 141.589 70.5391 141.484 70.6172C141.042 70.5391 140.651 70.5911 140.312 70.7734C140 70.9297 139.635 70.9948 139.219 70.9688C138.906 71.0208 138.685 71.0599 138.555 71.0859C138.451 71.112 138.333 71.125 138.203 71.125C137.917 71.151 137.682 71.112 137.5 71.0078C137.318 71.0599 137.148 71.0599 136.992 71.0078C136.836 70.9297 136.667 70.9167 136.484 70.9688C136.354 70.8906 136.237 70.8906 136.133 70.9688C136.029 71.0208 135.898 71.0339 135.742 71.0078C135.43 70.8516 135.221 70.7734 135.117 70.7734C135.039 70.7734 134.948 70.7474 134.844 70.6953C134.792 70.6432 134.727 70.5781 134.648 70.5C134.57 70.4219 134.453 70.3828 134.297 70.3828C134.01 70.2005 133.841 70.0443 133.789 69.9141C133.763 69.7839 133.724 69.6667 133.672 69.5625C133.542 69.3281 133.477 69.1719 133.477 69.0938C133.503 68.9896 133.503 68.8854 133.477 68.7812C133.372 68.651 133.255 68.5339 133.125 68.4297C133.021 68.3255 132.93 68.2083 132.852 68.0781C132.799 67.8958 132.76 67.7526 132.734 67.6484C132.734 67.5443 132.721 67.4271 132.695 67.2969C132.643 67.0625 132.591 66.8021 132.539 66.5156C132.513 66.2031 132.5 65.9297 132.5 65.6953C132.526 65.4609 132.526 65.3047 132.5 65.2266C132.474 65.1484 132.487 65.0833 132.539 65.0312C132.539 64.4583 132.63 63.9505 132.812 63.5078C132.839 63.3255 132.852 63.1432 132.852 62.9609C132.878 62.7786 132.956 62.6484 133.086 62.5703C133.164 62.2318 133.255 61.9974 133.359 61.8672C133.464 61.7109 133.555 61.5286 133.633 61.3203C133.815 61.138 133.906 61.0469 133.906 61.0469C133.932 61.0208 133.945 60.9948 133.945 60.9688C134.076 60.8906 134.154 60.8255 134.18 60.7734C134.232 60.6953 134.297 60.6693 134.375 60.6953C134.583 60.4089 134.805 60.1875 135.039 60.0312C135.299 59.849 135.573 59.6797 135.859 59.5234C136.432 59.2891 136.966 59.1328 137.461 59.0547C137.956 58.9505 138.398 58.9245 138.789 58.9766C138.893 58.8724 139.089 58.8203 139.375 58.8203C139.661 58.7943 139.883 58.8333 140.039 58.9375C140.143 59.0417 140.221 59.0938 140.273 59.0938C140.352 59.0677 140.417 59.0677 140.469 59.0938C140.547 59.1198 140.625 59.1719 140.703 59.25C140.807 59.3021 140.924 59.3411 141.055 59.3672C141.367 59.4193 141.536 59.4583 141.562 59.4844C141.589 59.5104 141.628 59.5365 141.68 59.5625C141.94 59.6406 142.214 59.6667 142.5 59.6406C142.786 59.6146 142.995 59.4974 143.125 59.2891C143.177 59.237 143.229 59.1328 143.281 58.9766C143.333 58.8203 143.372 58.7031 143.398 58.625C143.424 58.5469 143.424 58.4557 143.398 58.3516C143.372 58.2214 143.346 58.1172 143.32 58.0391C143.268 57.6745 143.242 57.2578 143.242 56.7891C143.242 56.2943 143.229 55.8776 143.203 55.5391C143.151 54.9661 143.06 54.3802 142.93 53.7812C142.878 53.599 142.826 53.4297 142.773 53.2734C142.721 53.1172 142.63 52.987 142.5 52.8828C142.37 52.4401 142.201 52.0625 141.992 51.75C141.784 51.4375 141.536 51.1641 141.25 50.9297C141.042 50.9297 140.885 50.8906 140.781 50.8125C140.703 50.7083 140.586 50.6432 140.43 50.6172C140.065 50.513 139.753 50.5 139.492 50.5781C139.258 50.6302 139.036 50.6432 138.828 50.6172C138.698 50.5911 138.581 50.5911 138.477 50.6172C138.398 50.6432 138.294 50.6693 138.164 50.6953C137.93 50.6432 137.734 50.6562 137.578 50.7344C137.448 50.7865 137.318 50.8385 137.188 50.8906C136.979 50.9948 136.823 51.0859 136.719 51.1641C136.536 51.2422 136.367 51.3203 136.211 51.3984C136.055 51.4505 135.911 51.5417 135.781 51.6719C135.703 51.75 135.599 51.8281 135.469 51.9062C135.365 51.9844 135.26 52.0885 135.156 52.2188C135.078 52.2969 134.987 52.401 134.883 52.5312C134.805 52.6615 134.727 52.7917 134.648 52.9219C134.44 53.2865 134.336 53.5078 134.336 53.5859C134.336 53.6641 134.362 53.8073 134.414 54.0156C134.466 54.0677 134.505 54.1328 134.531 54.2109C134.583 54.263 134.622 54.3281 134.648 54.4062C134.805 54.7188 134.909 54.888 134.961 54.9141C135.013 54.9141 135.052 54.9401 135.078 54.9922C135.182 54.9401 135.26 54.9401 135.312 54.9922C135.391 55.0182 135.482 55.0312 135.586 55.0312C135.716 55.0052 135.846 54.9661 135.977 54.9141C136.133 54.8359 136.289 54.7969 136.445 54.7969C136.471 54.5885 136.471 54.3932 136.445 54.2109C136.419 54.0026 136.432 53.8203 136.484 53.6641C136.667 53.2995 136.862 53.0391 137.07 52.8828C137.305 52.6224 137.604 52.4531 137.969 52.375C138.073 52.3229 138.164 52.2708 138.242 52.2188C138.346 52.1406 138.464 52.1016 138.594 52.1016C138.854 52.2578 139.023 52.3359 139.102 52.3359C139.206 52.3099 139.297 52.3229 139.375 52.375C139.688 52.401 139.935 52.4661 140.117 52.5703C140.326 52.6484 140.495 52.8177 140.625 53.0781C140.677 53.2083 140.703 53.3516 140.703 53.5078C140.729 53.638 140.807 53.7552 140.938 53.8594C140.99 53.9635 141.003 54.0677 140.977 54.1719C140.951 54.25 140.964 54.3542 141.016 54.4844C141.016 54.6146 141.042 54.7448 141.094 54.875C141.146 54.9792 141.146 55.0964 141.094 55.2266C141.016 55.3568 140.924 55.513 140.82 55.6953C140.742 55.8516 140.664 55.9557 140.586 56.0078C140.56 56.1641 140.495 56.2943 140.391 56.3984C140.286 56.5026 140.182 56.6068 140.078 56.7109C140.026 56.7891 139.974 56.8672 139.922 56.9453C139.87 57.0234 139.779 57.0885 139.648 57.1406C139.284 57.2969 139.049 57.388 138.945 57.4141C138.841 57.4401 138.75 57.4792 138.672 57.5312C138.385 57.7135 138.177 57.8047 138.047 57.8047C137.943 57.8047 137.826 57.8307 137.695 57.8828C137.383 57.987 137.188 58.026 137.109 58C137.031 57.974 136.966 57.974 136.914 58C136.784 58 136.641 58.026 136.484 58.0781C136.328 58.1302 136.172 58.1432 136.016 58.1172C135.755 58.0651 135.612 58.0521 135.586 58.0781C135.56 58.0781 135.534 58.0781 135.508 58.0781C135.247 58.026 135.052 57.9089 134.922 57.7266C134.792 57.5182 134.557 57.4141 134.219 57.4141C133.932 57.2318 133.698 57.1146 133.516 57.0625C133.333 56.9844 133.203 56.8542 133.125 56.6719C132.786 56.4375 132.565 56.2682 132.461 56.1641C132.383 56.0599 132.292 55.9688 132.188 55.8906C132.083 55.6302 131.966 55.3828 131.836 55.1484C131.706 54.9141 131.628 54.6536 131.602 54.3672C131.576 54.1849 131.562 53.9766 131.562 53.7422C131.562 53.4818 131.576 53.2474 131.602 53.0391C131.654 52.7005 131.719 52.4661 131.797 52.3359C131.901 52.2057 131.979 52.0495 132.031 51.8672C132.083 51.7891 132.109 51.7109 132.109 51.6328C132.109 51.5286 132.135 51.4375 132.188 51.3594C132.318 51.125 132.448 50.9688 132.578 50.8906C132.812 50.4479 133.021 50.1615 133.203 50.0312C133.385 49.901 133.581 49.7839 133.789 49.6797C134.206 49.4974 134.531 49.3542 134.766 49.25C135.026 49.1198 135.312 49.0417 135.625 49.0156C135.885 48.9896 136.133 48.9635 136.367 48.9375C136.602 48.8854 136.823 48.7943 137.031 48.6641C137.422 48.612 137.773 48.5859 138.086 48.5859C138.424 48.5859 138.75 48.5599 139.062 48.5078C139.167 48.5339 139.271 48.5339 139.375 48.5078C139.479 48.4557 139.583 48.4297 139.688 48.4297C139.974 48.4818 140.208 48.5078 140.391 48.5078C140.599 48.4818 140.82 48.4818 141.055 48.5078C141.133 48.5339 141.211 48.5599 141.289 48.5859C141.393 48.612 141.484 48.638 141.562 48.6641C141.797 48.7161 142.031 48.7812 142.266 48.8594C142.526 48.9115 142.747 49.0026 142.93 49.1328C143.737 49.2891 144.297 49.6927 144.609 50.3438C144.661 50.5781 144.714 50.7474 144.766 50.8516C144.818 50.9297 144.857 51.0339 144.883 51.1641C144.961 51.2943 145.039 51.4245 145.117 51.5547C145.221 51.6589 145.326 51.776 145.43 51.9062C145.586 52.1927 145.703 52.4531 145.781 52.6875C145.859 52.9219 145.964 53.1562 146.094 53.3906C146.146 53.4948 146.185 53.599 146.211 53.7031C146.263 53.7812 146.315 53.8854 146.367 54.0156C146.471 54.25 146.51 54.3802 146.484 54.4062C146.484 54.4323 146.484 54.4583 146.484 54.4844C146.51 54.6146 146.549 54.7448 146.602 54.875C146.68 54.9792 146.732 55.0964 146.758 55.2266C146.706 55.4089 146.706 55.5911 146.758 55.7734C146.836 55.9557 146.849 56.112 146.797 56.2422C146.901 56.4505 146.953 56.6849 146.953 56.9453C146.953 57.1797 146.966 57.4401 146.992 57.7266C147.044 57.8047 147.057 57.8828 147.031 57.9609C147.005 58.0391 146.992 58.1172 146.992 58.1953C146.992 58.3255 147.005 58.4557 147.031 58.5859C147.083 58.7161 147.096 58.8464 147.07 58.9766C147.044 59.1589 147.044 59.2891 147.07 59.3672C147.096 59.4193 147.109 59.4844 147.109 59.5625C147.083 59.6667 147.07 59.7839 147.07 59.9141C147.096 60.0182 147.096 60.1354 147.07 60.2656C147.044 60.4219 147.018 60.5781 146.992 60.7344C146.966 60.8646 146.94 60.9948 146.914 61.125C146.888 61.2292 146.862 61.3203 146.836 61.3984C146.81 61.4766 146.81 61.5677 146.836 61.6719C146.888 62.0104 146.862 62.2969 146.758 62.5312C146.706 62.8698 146.654 63.2214 146.602 63.5859C146.576 63.9245 146.536 64.263 146.484 64.6016C146.536 64.8359 146.549 65.0573 146.523 65.2656C146.523 65.4479 146.51 65.6823 146.484 65.9688C146.51 66.2812 146.536 66.5677 146.562 66.8281C146.615 67.0885 146.706 67.3099 146.836 67.4922C147.253 67.5703 147.539 67.6354 147.695 67.6875C147.852 67.7396 147.956 67.8307 148.008 67.9609C148.112 68.1693 148.216 68.3516 148.32 68.5078C148.424 68.638 148.503 68.7943 148.555 68.9766C148.607 69.1068 148.62 69.1979 148.594 69.25C148.568 69.3021 148.542 69.3932 148.516 69.5234C148.464 69.6276 148.451 69.7188 148.477 69.7969C148.503 69.849 148.49 69.9401 148.438 70.0703C148.333 70.1484 148.268 70.2396 148.242 70.3438C148.242 70.4219 148.216 70.487 148.164 70.5391L147.969 70.6172ZM136.523 63.2344C136.393 63.651 136.302 63.9115 136.25 64.0156C136.276 64.3281 136.276 64.5625 136.25 64.7188C136.224 64.875 136.198 65.0182 136.172 65.1484C136.068 65.487 136.055 65.7734 136.133 66.0078C136.159 66.138 136.198 66.2943 136.25 66.4766C136.302 66.6589 136.354 66.776 136.406 66.8281C136.458 67.1927 136.602 67.4531 136.836 67.6094C137.07 67.7396 137.292 67.8698 137.5 68C138.021 68.0781 138.398 68.0521 138.633 67.9219C138.893 67.7656 139.167 67.7005 139.453 67.7266C139.635 67.5443 139.87 67.4531 140.156 67.4531C140.443 67.2448 140.599 67.1406 140.625 67.1406C140.651 67.1146 140.69 67.0885 140.742 67.0625C140.951 66.9583 141.094 66.8932 141.172 66.8672C141.276 66.8151 141.393 66.763 141.523 66.7109C141.654 66.6589 141.797 66.5677 141.953 66.4375C142.135 66.3073 142.253 66.1901 142.305 66.0859C142.487 65.7995 142.578 65.4479 142.578 65.0312C142.578 64.901 142.591 64.7969 142.617 64.7188C142.669 64.6406 142.695 64.5365 142.695 64.4062C142.591 64.1979 142.539 64.0417 142.539 63.9375C142.565 63.7292 142.565 63.599 142.539 63.5469C142.513 63.4948 142.487 63.4427 142.461 63.3906C142.383 63.1562 142.318 62.987 142.266 62.8828C142.214 62.7786 142.188 62.6484 142.188 62.4922C141.979 62.1797 141.81 62.0104 141.68 61.9844C141.576 61.9323 141.458 61.8802 141.328 61.8281C141.094 61.9062 140.859 61.8932 140.625 61.7891C140.417 61.6849 140.221 61.6849 140.039 61.7891C139.518 61.7891 139.049 61.9062 138.633 62.1406C138.216 62.349 137.786 62.5182 137.344 62.6484C137.214 62.6745 137.096 62.7005 136.992 62.7266C136.914 62.7526 136.823 62.7917 136.719 62.8438C136.719 62.9479 136.693 63.026 136.641 63.0781C136.589 63.1302 136.549 63.1823 136.523 63.2344ZM147.695 49.9141C147.956 49.9922 148.138 50.0833 148.242 50.1875C148.372 50.2656 148.49 50.3958 148.594 50.5781C148.698 50.7604 148.75 50.9557 148.75 51.1641C148.776 51.3724 148.724 51.5417 148.594 51.6719C148.464 51.724 148.385 51.776 148.359 51.8281C148.333 51.8542 148.294 51.8932 148.242 51.9453C148.034 52.1536 147.812 52.2057 147.578 52.1016C147.344 51.9714 147.109 51.8672 146.875 51.7891C146.745 51.6328 146.641 51.4505 146.562 51.2422C146.484 51.0339 146.445 50.8125 146.445 50.5781C146.549 50.4479 146.641 50.3307 146.719 50.2266C146.823 50.0964 146.979 50.0443 147.188 50.0703C147.266 50.0182 147.435 49.9661 147.695 49.9141ZM133.086 58.3516C133.112 58.5339 133.164 58.6901 133.242 58.8203C133.346 58.9505 133.372 59.1198 133.32 59.3281C133.034 59.6406 132.773 59.7969 132.539 59.7969C132.148 59.6146 131.875 59.4193 131.719 59.2109C131.589 58.9766 131.589 58.7031 131.719 58.3906C131.797 58.3125 131.914 58.2214 132.07 58.1172C132.279 58.0391 132.461 58.0521 132.617 58.1562C132.799 58.2344 132.956 58.2995 133.086 58.3516ZM148.281 63.2344C148.385 63.2083 148.451 63.1823 148.477 63.1562C148.529 63.1042 148.607 63.1042 148.711 63.1562C148.841 63.2083 148.919 63.3255 148.945 63.5078C148.997 63.6901 148.997 63.8594 148.945 64.0156C148.867 64.0677 148.789 64.1068 148.711 64.1328C148.659 64.1589 148.594 64.1719 148.516 64.1719C148.333 64.1198 148.229 63.9896 148.203 63.7812C148.177 63.5729 148.203 63.3906 148.281 63.2344ZM148.008 66.8281C147.799 66.6458 147.708 66.4505 147.734 66.2422C147.786 66.0339 147.812 65.8255 147.812 65.6172C147.917 65.4349 148.008 65.3438 148.086 65.3438C148.19 65.3177 148.281 65.2786 148.359 65.2266C148.594 65.2266 148.802 65.2526 148.984 65.3047C149.167 65.3307 149.271 65.4349 149.297 65.6172C149.427 65.8255 149.453 65.9948 149.375 66.125C149.323 66.2292 149.284 66.3464 149.258 66.4766C149.128 66.6068 148.932 66.724 148.672 66.8281C148.438 66.9323 148.242 66.9844 148.086 66.9844L148.008 66.8281ZM132.109 70.2656C132.37 70.2135 132.591 70.2396 132.773 70.3438C132.982 70.4479 133.06 70.6302 133.008 70.8906C133.008 71.099 132.943 71.2292 132.812 71.2812C132.708 71.3333 132.591 71.4115 132.461 71.5156C132.174 71.4635 131.992 71.2943 131.914 71.0078C131.836 70.6953 131.901 70.4479 132.109 70.2656Z" fill="#FF3F4B"/>
</svg>
